<?xml version="1.0" standalone="no"?>
<!DOCTYPE svg PUBLIC "-//W3C//DTD SVG 20010904//EN"
 "http://www.w3.org/TR/2001/REC-SVG-20010904/DTD/svg10.dtd">
<svg version="1.0" xmlns="http://www.w3.org/2000/svg"
 width="640.000000pt" height="640.000000pt" viewBox="0 0 640.000000 640.000000"
 preserveAspectRatio="xMidYMid meet">
<metadata>
Created by potrace 1.11, written by Peter Selinger 2001-2013
</metadata>
<g transform="translate(0.000000,640.000000) scale(0.100000,-0.100000)"
fill="#333" stroke="none">
<path d="M3170 6375 c0 -20 -40 -28 -74 -15 -26 9 -27 9 -16 -5 14 -17 14 -17
-65 -17 l-50 0 45 -10 c40 -9 42 -11 23 -19 -22 -8 -32 -20 -15 -18 45 7 40
-15 -7 -34 -22 -9 -42 -21 -46 -27 -4 -6 10 -4 32 6 38 16 82 24 96 17 4 -2 2
-14 -4 -25 -11 -20 -10 -20 12 -4 47 32 70 18 73 -44 1 -37 16 -40 16 -4 0 33
17 64 36 64 8 0 27 -8 42 -17 17 -10 22 -11 15 -3 -25 28 -16 43 23 36 19 -4
42 -10 50 -13 8 -3 14 0 14 6 0 6 -9 11 -19 11 -10 0 -22 7 -25 16 -9 23 -8
24 17 25 21 1 21 1 -3 9 l-25 7 28 8 c44 12 31 20 -25 16 -49 -3 -51 -2 -38
15 8 10 10 15 4 11 -6 -3 -25 -9 -42 -12 -25 -4 -34 -1 -44 15 -15 24 -28 26
-28 5z"/>
<path d="M3546 6355 c4 -9 12 -14 18 -12 6 3 17 -2 24 -9 10 -11 7 -15 -15
-20 -50 -11 -49 -12 14 -13 73 -1 94 -8 86 -27 -6 -17 8 -19 24 -3 29 29 123
-35 123 -85 0 -9 4 -15 9 -11 6 3 6 17 1 35 -12 42 7 56 57 40 21 -7 43 -15
48 -19 6 -3 2 2 -8 12 -24 21 -11 22 63 2 30 -8 56 -12 58 -10 2 2 -16 9 -40
16 -23 7 -50 19 -58 27 -13 13 -12 13 10 3 l25 -12 -24 20 c-13 12 -37 21 -55
21 -18 0 -36 4 -41 9 -6 5 -29 12 -53 15 -24 3 -48 8 -54 12 -5 4 -27 7 -47 8
-20 0 -42 5 -50 10 -8 5 -16 5 -20 -1 -7 -12 -70 -11 -88 0 -9 6 -11 3 -7 -8z"/>
<path d="M2687 6354 c-3 -4 -19 -7 -34 -8 -38 -3 -227 -48 -233 -56 -3 -4 -13
-6 -22 -4 -10 1 -21 -3 -25 -8 -3 -6 -1 -8 5 -4 6 3 14 1 17 -5 4 -6 -2 -13
-14 -16 -12 -3 -21 -9 -21 -14 0 -5 12 -4 26 1 14 6 32 10 41 10 13 0 13 -2 2
-17 -13 -15 -11 -14 19 1 60 31 95 8 69 -46 -5 -11 -4 -18 3 -18 5 0 10 6 10
13 0 7 13 28 28 47 24 28 36 34 68 34 21 0 48 -4 59 -9 18 -8 19 -7 6 8 -8 10
-11 20 -8 23 3 3 37 6 76 7 38 0 67 5 65 9 -3 5 -11 8 -17 7 -7 -1 -23 -1 -36
0 -23 1 -23 2 -8 19 21 23 12 33 -19 22 -14 -6 -26 -6 -29 0 -7 11 -19 13 -28
4z"/>
<path d="M3396 6338 c3 -5 10 -6 15 -3 13 9 11 12 -6 12 -8 0 -12 -4 -9 -9z"/>
<path d="M2848 6293 c7 -3 16 -2 19 1 4 3 -2 6 -13 5 -11 0 -14 -3 -6 -6z"/>
<path d="M2325 6230 c-3 -6 1 -7 9 -4 18 7 21 14 7 14 -6 0 -13 -4 -16 -10z"/>
<path d="M3381 6236 c2 -2 15 -9 29 -15 24 -11 24 -11 6 3 -16 13 -49 24 -35
12z"/>
<path d="M2290 6219 c0 -5 5 -7 10 -4 6 3 10 8 10 11 0 2 -4 4 -10 4 -5 0 -10
-5 -10 -11z"/>
<path d="M2750 6216 c0 -3 9 -10 20 -16 11 -6 20 -8 20 -6 0 3 -9 10 -20 16
-11 6 -20 8 -20 6z"/>
<path d="M3566 6205 c-11 -8 -15 -15 -9 -15 6 0 16 7 23 15 16 19 11 19 -14 0z"/>
<path d="M2813 6164 c0 -7 2 -12 5 -9 3 2 14 0 25 -6 14 -8 18 -8 13 0 -4 6
-15 15 -25 20 -13 7 -18 6 -18 -5z"/>
<path d="M3479 6143 l-24 -28 30 25 c17 14 32 26 34 28 2 1 0 2 -6 2 -5 0 -20
-12 -34 -27z"/>
<path d="M3173 6128 c-5 -7 -10 -29 -12 -48 -4 -44 -28 -97 -49 -105 -8 -3
-36 5 -62 17 l-46 23 15 -28 c14 -24 14 -29 1 -37 -18 -12 -115 -5 -187 14
-29 8 -53 10 -53 6 0 -5 15 -12 33 -16 43 -9 137 -54 137 -65 0 -12 -42 -28
-80 -31 -38 -3 -29 -11 17 -15 21 -1 44 -9 51 -17 13 -13 10 -17 -19 -35 -19
-12 -78 -39 -132 -62 -54 -23 -96 -43 -94 -45 2 -3 20 2 39 10 100 42 260 72
277 52 10 -12 9 -15 -28 -77 l-14 -24 24 20 c13 11 29 26 37 32 18 17 58 27
77 19 31 -12 53 -98 54 -210 1 -66 7 -55 15 24 11 130 32 190 66 190 23 0 90
-30 90 -41 0 -4 6 -9 14 -12 11 -4 9 4 -6 29 -28 47 -19 65 29 59 83 -10 119
-18 202 -46 109 -37 94 -24 -34 30 -170 71 -181 95 -55 111 8 1 -5 6 -29 11
-48 9 -67 22 -57 37 5 9 99 50 150 66 40 13 8 13 -54 0 -92 -19 -154 -24 -171
-13 -12 7 -12 12 2 37 l15 28 -43 -22 c-23 -12 -51 -20 -62 -17 -26 7 -46 57
-46 115 0 27 -1 48 -1 48 -1 0 -6 -6 -11 -12z"/>
<path d="M2875 6120 c3 -5 8 -10 11 -10 2 0 4 5 4 10 0 6 -5 10 -11 10 -5 0
-7 -4 -4 -10z"/>
<path d="M3414 6088 l-29 -33 33 29 c17 17 32 31 32 33 0 8 -8 1 -36 -29z"/>
<path d="M2920 6085 c13 -14 26 -25 28 -25 3 0 -5 11 -18 25 -13 14 -26 25
-28 25 -3 0 5 -11 18 -25z"/>
<path d="M4151 6087 c2 -1 13 -9 24 -17 19 -14 19 -14 6 3 -7 9 -18 17 -24 17
-6 0 -8 -1 -6 -3z"/>
<path d="M2129 6033 c-13 -16 -12 -17 4 -4 16 13 21 21 13 21 -2 0 -10 -8 -17
-17z"/>
<path d="M2465 6030 c-3 -6 1 -7 9 -4 18 7 21 14 7 14 -6 0 -13 -4 -16 -10z"/>
<path d="M3580 5980 c-8 -5 -10 -10 -5 -10 6 0 17 5 25 10 8 5 11 10 5 10 -5
0 -17 -5 -25 -10z"/>
<path d="M1832 5897 c-59 -105 -106 -139 -140 -105 -9 9 -12 6 -12 -14 0 -44
-38 -60 -147 -61 -49 0 -59 -13 -12 -15 17 0 40 -9 51 -19 19 -17 19 -18 -2
-35 -12 -10 -28 -18 -36 -18 -7 0 -15 -4 -19 -9 -3 -6 3 -8 15 -6 26 5 35 -12
18 -32 -7 -9 -47 -41 -88 -72 -74 -55 -129 -102 -100 -86 8 5 29 19 45 31 31
23 165 94 178 94 14 0 6 -24 -20 -59 l-27 -35 49 37 c73 56 93 42 74 -53 -21
-105 -18 -114 9 -38 51 137 103 190 142 143 20 -24 26 -18 22 19 -3 28 0 37
20 47 26 14 127 14 177 -1 19 -5 36 -8 39 -6 5 5 -86 46 -103 46 -6 0 -19 8
-29 18 -15 18 -15 20 1 34 10 9 38 23 63 32 l45 16 -47 -4 c-26 -3 -50 -1 -53
4 -7 12 74 71 143 105 28 14 52 28 52 31 0 3 -3 3 -7 1 -5 -3 -52 -24 -107
-47 -113 -48 -140 -47 -105 2 20 29 21 31 4 18 -11 -8 -22 -18 -25 -21 -12
-14 -51 -29 -61 -24 -12 8 -7 48 14 98 22 52 14 46 -21 -16z"/>
<path d="M4490 5944 c0 -3 5 -15 11 -27 7 -11 14 -35 16 -53 6 -44 -16 -49
-61 -12 -37 30 -47 28 -21 -6 8 -10 12 -22 10 -27 -8 -12 -114 23 -188 62 -26
14 -67 29 -67 25 0 -2 28 -19 63 -36 78 -41 147 -88 147 -100 0 -10 -15 -13
-60 -11 -19 0 -15 -3 15 -14 22 -9 49 -24 59 -35 20 -19 19 -20 -45 -49 -35
-16 -79 -32 -96 -36 -18 -3 -35 -10 -38 -15 -2 -4 26 -1 63 7 171 37 242 17
212 -62 l-10 -27 30 25 c49 42 91 15 126 -81 10 -26 21 -51 25 -57 3 -5 10
-25 14 -43 11 -52 16 -31 6 24 -23 120 -23 132 -2 143 16 9 28 3 72 -37 49
-43 51 -44 28 -12 -35 47 -42 70 -23 70 18 0 116 -49 168 -85 72 -49 46 -19
-32 37 -127 92 -145 117 -84 119 26 0 25 1 -7 13 -71 25 -65 59 12 72 63 11
49 19 -33 20 -93 0 -135 20 -127 60 3 19 1 22 -8 14 -41 -34 -72 -15 -131 80
-35 56 -44 68 -44 54z"/>
<path d="M4718 5893 c-19 -23 -31 -43 -24 -43 2 0 14 14 26 30 23 33 22 40 -2
13z"/>
<path d="M3798 5828 c5 -5 16 -8 23 -6 8 3 3 7 -10 11 -17 4 -21 3 -13 -5z"/>
<path d="M2416 5814 c-4 -9 -4 -19 -1 -22 2 -3 7 3 11 12 4 9 4 19 1 22 -2 3
-7 -3 -11 -12z"/>
<path d="M2490 5820 c0 -5 5 -10 11 -10 5 0 7 5 4 10 -3 6 -8 10 -11 10 -2 0
-4 -4 -4 -10z"/>
<path d="M2543 5823 c9 -2 23 -2 30 0 6 3 -1 5 -18 5 -16 0 -22 -2 -12 -5z"/>
<path d="M3910 5815 c0 -8 8 -11 20 -8 11 3 20 7 20 8 0 1 -9 5 -20 8 -12 3
-20 0 -20 -8z"/>
<path d="M2090 5600 c8 -5 20 -10 25 -10 6 0 3 5 -5 10 -8 5 -19 10 -25 10 -5
0 -3 -5 5 -10z"/>
<path d="M3456 5545 c15 -22 41 -56 58 -76 17 -19 49 -57 71 -84 22 -27 45
-53 50 -59 6 -6 26 -31 45 -56 19 -25 37 -47 40 -50 3 -3 18 -20 33 -38 15
-19 27 -31 27 -27 0 6 -191 244 -225 281 -5 7 -26 31 -45 54 -65 79 -85 99
-54 55z"/>
<path d="M2821 5485 c-34 -41 -58 -75 -54 -75 8 1 126 150 119 150 -3 0 -32
-34 -65 -75z"/>
<path d="M3960 5522 c0 -12 3 -12 15 -2 8 7 15 13 15 15 0 1 -7 2 -15 2 -8 0
-15 -7 -15 -15z"/>
<path d="M1245 5520 c-3 -6 1 -7 9 -4 18 7 21 14 7 14 -6 0 -13 -4 -16 -10z"/>
<path d="M2358 5508 c5 -19 7 -20 10 -5 2 9 8 14 14 11 7 -4 8 -2 4 4 -13 22
-35 14 -28 -10z"/>
<path d="M5370 5483 c0 -4 19 -27 41 -50 26 -28 35 -43 25 -43 -10 0 -2 -13
22 -34 41 -39 38 -51 -21 -72 -31 -12 -31 -12 21 -12 54 0 99 -20 108 -48 15
-49 15 -49 24 -34 5 8 10 12 12 10 2 -3 16 -22 32 -43 15 -21 29 -44 30 -51 2
-15 46 -84 46 -73 0 7 -6 21 -28 64 -7 13 -12 30 -12 40 0 14 4 13 25 -7 14
-13 25 -20 25 -15 0 4 10 0 22 -11 12 -10 3 4 -20 32 -43 53 -52 71 -29 58 6
-3 -3 8 -20 25 -18 18 -33 36 -33 40 0 14 -161 171 -170 166 -4 -3 -7 1 -6 8
0 6 -3 12 -9 12 -5 0 -8 -7 -7 -14 3 -13 1 -13 -15 -1 -10 8 -28 25 -40 38
-13 13 -23 19 -23 15z m344 -349 c5 -14 4 -15 -9 -4 -17 14 -19 20 -6 20 5 0
12 -7 15 -16z"/>
<path d="M4417 5393 c-30 -49 -69 -115 -87 -148 -18 -33 -41 -72 -51 -87 -11
-14 -19 -29 -19 -33 0 -14 37 40 75 110 22 39 43 72 47 73 4 2 8 8 8 13 0 5
19 39 41 76 23 38 43 71 46 76 2 4 2 7 -1 7 -3 0 -29 -39 -59 -87z"/>
<path d="M1905 5397 c25 -43 45 -83 45 -88 0 -13 18 -11 26 4 4 6 3 9 -1 4 -8
-7 -65 73 -65 90 0 5 -11 22 -25 38 -15 18 -7 -2 20 -48z"/>
<path d="M973 5441 c-14 -13 -29 -18 -43 -14 -16 4 -21 3 -16 -5 4 -7 2 -12
-5 -12 -13 0 -41 -29 -131 -130 -27 -30 -58 -65 -70 -76 -11 -12 -18 -26 -14
-32 3 -5 -1 -15 -10 -23 -25 -20 -36 -48 -19 -45 8 1 18 6 22 11 4 4 2 5 -4 1
-7 -4 -13 -3 -13 3 0 5 9 9 20 8 11 -1 20 -2 20 -3 0 -1 -7 -18 -15 -37 -24
-58 -17 -56 15 2 38 69 61 95 70 80 5 -6 12 1 18 19 14 40 51 64 106 65 41 2
57 17 17 17 -10 0 -24 7 -31 15 -11 13 -8 22 21 52 19 20 28 33 22 29 -23 -13
-13 4 28 49 43 46 49 60 12 26z"/>
<path d="M1319 5403 c-13 -16 -12 -17 4 -4 9 7 17 15 17 17 0 8 -8 3 -21 -13z"/>
<path d="M2727 5378 c-8 -13 -28 -37 -43 -55 -47 -51 -58 -66 -103 -129 -45
-63 -36 -54 97 108 43 52 78 86 84 82 7 -4 8 -3 4 4 -11 18 -22 15 -39 -10z"/>
<path d="M1999 5333 c-13 -17 -13 -17 6 -3 11 8 22 16 24 17 2 2 0 3 -6 3 -6
0 -17 -8 -24 -17z"/>
<path d="M4955 5290 c10 -11 20 -20 23 -20 3 0 -3 9 -13 20 -10 11 -20 20 -23
20 -3 0 3 -9 13 -20z"/>
<path d="M1977 5273 c11 -28 84 -153 90 -153 3 0 -6 19 -20 43 -14 23 -35 61
-47 85 -22 43 -35 56 -23 25z"/>
<path d="M3998 5275 c-3 -3 -2 -24 1 -48 10 -67 5 -172 -9 -206 -17 -43 -47
-40 -103 9 l-45 40 21 -49 c38 -91 -2 -99 -168 -34 -49 20 -112 47 -138 60
-27 13 -51 22 -54 20 -2 -3 21 -18 52 -33 139 -71 266 -176 242 -201 -4 -4
-38 -12 -75 -18 l-67 -12 55 -12 c159 -35 132 -83 -125 -226 -133 -74 -132
-75 7 -16 166 70 287 93 310 59 12 -17 1 -82 -19 -122 -13 -26 -7 -22 36 22
34 35 57 52 67 48 9 -3 19 -6 23 -6 24 0 70 -129 87 -243 3 -21 7 -46 9 -55 2
-9 4 -29 4 -44 1 -16 5 -28 10 -28 4 0 7 12 5 28 -2 15 -4 83 -5 152 -1 141 9
180 48 180 24 0 113 -79 113 -100 0 -5 4 -10 10 -10 5 0 -2 22 -16 48 -13 26
-26 61 -27 77 -2 26 2 30 25 33 33 4 106 -27 228 -96 52 -30 100 -57 105 -60
23 -12 -13 17 -80 64 -127 89 -215 169 -215 196 0 22 13 28 83 37 l52 6 -56
13 c-68 16 -104 44 -89 72 17 32 79 77 156 111 40 19 73 37 74 40 0 4 -31 -4
-69 -17 -90 -31 -194 -53 -226 -46 -21 4 -55 40 -46 49 1 2 8 23 15 47 l14 44
-38 -39 c-20 -21 -44 -39 -53 -39 -47 0 -92 106 -114 265 -6 44 -7 48 -15 40z"/>
<path d="M2320 5260 c0 -5 5 -10 11 -10 5 0 7 5 4 10 -3 6 -8 10 -11 10 -2 0
-4 -4 -4 -10z"/>
<path d="M1359 5243 c-13 -16 -12 -17 4 -4 9 7 17 15 17 17 0 8 -8 3 -21 -13z"/>
<path d="M4980 5256 c0 -2 8 -10 18 -17 15 -13 16 -12 3 4 -13 16 -21 21 -21
13z"/>
<path d="M3153 5235 c-9 -10 -9 -16 -2 -20 14 -9 22 0 17 18 -2 13 -5 13 -15
2z"/>
<path d="M5260 5246 c0 -2 7 -7 16 -10 8 -3 12 -2 9 4 -6 10 -25 14 -25 6z"/>
<path d="M1077 5229 c7 -7 15 -10 18 -7 3 3 -2 9 -12 12 -14 6 -15 5 -6 -5z"/>
<path d="M2305 5163 c-18 -84 -47 -157 -71 -185 -21 -22 -59 -9 -97 35 l-28
32 11 -30 c47 -124 -16 -143 -233 -72 -60 20 -107 33 -104 31 2 -3 42 -23 87
-45 94 -45 155 -90 163 -118 7 -28 -21 -49 -90 -70 l-58 -18 47 -1 c56 -1 88
-16 88 -39 0 -24 -81 -98 -209 -191 -62 -45 -111 -82 -107 -82 3 0 37 20 75
45 39 24 101 60 138 79 142 71 187 67 158 -13 -8 -23 -24 -57 -36 -74 -16 -24
-10 -20 22 14 81 85 118 95 137 39 6 -15 9 -92 7 -170 -3 -135 2 -175 11 -93
3 21 7 49 11 63 3 14 7 34 9 45 6 36 10 49 28 107 38 117 88 128 158 35 17
-23 27 -33 23 -22 -42 111 -38 151 17 157 38 4 162 -31 262 -73 38 -16 71 -28
72 -26 2 2 -43 30 -101 62 -58 33 -123 76 -146 97 -34 32 -38 40 -29 57 13 26
35 37 85 46 55 10 79 24 40 23 -54 -1 -113 13 -119 29 -9 23 64 88 178 156 53
31 100 57 106 57 5 0 10 5 10 10 0 6 -26 -3 -57 -19 -92 -45 -253 -102 -282
-99 -37 4 -40 45 -5 100 l26 43 -43 -41 c-59 -56 -88 -70 -103 -52 -24 27 -32
65 -30 156 1 50 1 92 -1 92 -2 0 -11 -35 -20 -77z"/>
<path d="M5010 5216 c0 -2 8 -10 18 -17 15 -13 16 -12 3 4 -13 16 -21 21 -21
13z"/>
<path d="M5036 5172 c-3 -5 1 -9 9 -9 8 0 12 4 9 9 -3 4 -7 8 -9 8 -2 0 -6 -4
-9 -8z"/>
<path d="M1279 5161 c10 -6 12 -14 5 -23 -5 -8 -2 -6 7 4 9 9 19 15 23 13 3
-3 4 -2 1 2 -3 4 -16 8 -28 10 -17 2 -18 1 -8 -6z"/>
<path d="M3162 5150 c0 -14 2 -19 5 -12 2 6 2 18 0 25 -3 6 -5 1 -5 -13z"/>
<path d="M3790 5136 c0 -2 8 -10 18 -17 15 -13 16 -12 3 4 -13 16 -21 21 -21
13z"/>
<path d="M1230 5068 c-19 -24 -26 -37 -17 -29 19 15 61 71 54 71 -2 0 -19 -19
-37 -42z"/>
<path d="M4845 5100 c-3 -6 1 -7 9 -4 18 7 21 14 7 14 -6 0 -13 -4 -16 -10z"/>
<path d="M4759 5091 c7 -5 11 -13 7 -19 -3 -6 -1 -14 5 -18 8 -4 9 -3 5 4 -4
7 -2 12 5 12 8 0 8 4 -1 15 -7 8 -18 15 -24 15 -6 0 -5 -4 3 -9z"/>
<path d="M5100 5096 c0 -2 8 -10 18 -17 15 -13 16 -12 3 4 -13 16 -21 21 -21
13z"/>
<path d="M4805 5080 c-3 -6 1 -7 9 -4 18 7 21 14 7 14 -6 0 -13 -4 -16 -10z"/>
<path d="M5572 5070 c0 -14 2 -19 5 -12 2 6 2 18 0 25 -3 6 -5 1 -5 -13z"/>
<path d="M1556 5067 c-16 -12 -16 -13 2 -13 10 0 19 6 19 13 0 7 -1 13 -2 13
-1 0 -9 -6 -19 -13z"/>
<path d="M3157 5031 c-2 -10 -1 -24 3 -30 4 -7 7 1 8 18 1 35 -3 40 -11 12z"/>
<path d="M5562 5014 c-7 -8 -8 -14 -3 -14 10 0 25 19 20 25 -2 1 -10 -3 -17
-11z"/>
<path d="M1159 4973 c-13 -16 -12 -17 4 -4 9 7 17 15 17 17 0 8 -8 3 -21 -13z"/>
<path d="M5180 4986 c0 -2 8 -10 18 -17 15 -13 16 -12 3 4 -13 16 -21 21 -21
13z"/>
<path d="M5803 4969 c8 -13 18 -34 22 -46 5 -18 3 -22 -9 -17 -11 4 -13 0 -9
-17 6 -21 4 -20 -40 9 -62 43 -66 40 -12 -11 48 -46 56 -67 28 -67 -14 -1 -12
-5 10 -21 15 -11 27 -25 27 -31 0 -12 -70 -78 -83 -78 -6 0 -8 -2 -5 -5 2 -3
18 1 34 9 53 27 84 28 93 3 5 -12 6 -29 3 -37 -5 -13 -3 -13 11 -2 19 16 37 8
37 -18 0 -10 5 -22 10 -25 6 -3 10 -20 10 -36 0 -17 4 -28 9 -25 4 3 5 25 1
48 -10 52 -7 57 21 32 22 -19 22 -19 10 4 -16 30 0 28 23 -3 10 -14 23 -25 29
-25 6 0 1 10 -11 23 -12 13 -22 29 -22 35 0 7 -4 12 -10 12 -5 0 -10 7 -10 16
0 11 5 14 16 10 9 -4 2 9 -15 29 -33 38 -37 50 -21 60 18 11 10 24 -17 27 -20
2 -29 11 -38 38 -7 22 -14 29 -17 20 -3 -10 -16 5 -37 42 -18 32 -37 61 -43
64 -6 4 -3 -4 5 -17z"/>
<path d="M5361 4975 c0 -5 6 -39 14 -75 17 -79 19 -136 4 -146 -7 -4 -29 12
-52 37 -22 24 -38 40 -35 34 2 -5 12 -27 22 -49 12 -28 14 -42 7 -49 -15 -15
-51 5 -164 88 -48 36 -87 61 -87 57 0 -4 19 -20 41 -37 58 -42 168 -163 175
-192 8 -30 2 -36 -36 -35 -16 0 -30 -4 -30 -9 0 -5 7 -9 16 -9 28 0 74 -40 74
-65 0 -27 -61 -91 -126 -132 -65 -41 -54 -44 24 -6 37 18 87 35 111 39 38 6
47 4 62 -14 16 -20 18 -82 4 -120 -3 -7 0 -10 5 -7 6 3 10 12 10 19 0 7 9 22
21 35 20 21 22 21 40 5 21 -19 51 -103 79 -224 17 -75 19 -78 14 -30 -5 54
-12 130 -18 181 -2 14 1 36 6 48 8 23 9 23 30 5 11 -11 29 -32 39 -49 24 -37
24 -27 2 36 -10 26 -14 51 -10 56 12 12 74 -26 142 -89 35 -32 65 -58 68 -58
2 0 -16 21 -41 47 -155 165 -181 222 -102 224 23 0 22 1 -10 15 -76 31 -72 78
10 143 59 47 59 49 -1 21 -24 -11 -61 -20 -81 -20 -47 0 -66 25 -63 83 2 35 1
38 -7 20 -11 -24 -34 -37 -49 -27 -15 9 -41 64 -75 164 -18 52 -33 91 -33 85z"/>
<path d="M966 4882 c-31 -94 -62 -163 -80 -174 -13 -8 -36 9 -36 28 0 7 -4 15
-8 18 -4 3 -7 -12 -6 -32 1 -35 -13 -81 -25 -83 -3 0 -16 -2 -29 -5 -51 -9
-192 69 -192 107 0 10 12 25 28 33 25 14 26 15 5 16 -35 0 -28 20 30 73 l52
50 -51 -32 c-28 -17 -54 -31 -57 -31 -4 0 -2 12 4 27 10 27 10 27 -10 8 -26
-22 -28 -4 -6 39 22 42 18 46 -7 6 -11 -19 -28 -46 -36 -59 -10 -17 -16 -20
-22 -11 -5 8 -10 2 -15 -19 -7 -35 -34 -54 -62 -44 -14 5 -16 4 -7 -8 24 -31
24 -49 -2 -71 -20 -18 -22 -24 -10 -28 12 -4 10 -14 -14 -52 -34 -54 -31 -61
6 -20 l25 27 -5 -30 c-5 -28 -5 -28 6 -7 20 41 31 29 29 -33 0 -25 2 -22 17
19 17 45 42 74 42 47 0 -6 5 -11 11 -11 6 0 8 8 5 18 -6 20 3 37 24 44 20 7
121 -46 153 -80 14 -15 27 -40 29 -56 2 -24 -3 -34 -29 -50 -18 -12 -32 -25
-33 -29 0 -5 4 -6 9 -3 4 3 16 0 26 -8 16 -11 16 -15 2 -42 -8 -16 -45 -64
-81 -106 -63 -74 -90 -115 -43 -65 37 39 128 107 143 107 19 0 18 -34 -2 -71
-8 -17 -13 -33 -11 -36 3 -2 10 4 16 15 16 30 40 52 58 52 14 0 15 -12 10 -89
-4 -49 -9 -108 -12 -132 -2 -24 6 -1 19 51 26 103 58 184 76 195 15 9 39 -12
54 -49 12 -29 13 -28 8 25 -2 34 1 65 8 79 11 20 17 22 56 16 25 -3 79 -22
121 -41 42 -20 75 -34 72 -31 -2 2 -33 26 -69 52 -75 55 -110 92 -110 117 0
23 33 55 65 63 35 9 31 23 -5 22 -17 -1 -33 2 -36 5 -22 21 72 135 201 245 28
24 -6 2 -74 -48 -152 -111 -187 -119 -150 -33 26 61 24 63 -11 15 -29 -41 -59
-55 -61 -29 -4 29 3 87 17 146 8 35 13 65 11 67 -2 2 -16 -36 -31 -84z"/>
<path d="M3150 4921 c0 -6 4 -12 8 -15 5 -3 9 1 9 9 0 8 -4 15 -9 15 -4 0 -8
-4 -8 -9z"/>
<path d="M5546 4903 c-6 -14 -5 -15 5 -6 7 7 10 15 7 18 -3 3 -9 -2 -12 -12z"/>
<path d="M811 4864 c0 -11 3 -14 6 -6 3 7 2 16 -1 19 -3 4 -6 -2 -5 -13z"/>
<path d="M3148 4830 c-15 -17 -15 -19 -1 -25 9 -3 21 -1 27 5 7 7 6 10 -2 10
-6 0 -9 7 -6 15 8 19 3 18 -18 -5z"/>
<path d="M2826 4812 c-2 -4 53 -6 122 -4 184 4 201 9 30 10 -82 0 -150 -3
-152 -6z"/>
<path d="M3223 4813 c9 -2 23 -2 30 0 6 3 -1 5 -18 5 -16 0 -22 -2 -12 -5z"/>
<path d="M3313 4813 c26 -2 67 -2 90 0 23 2 2 3 -48 3 -49 0 -68 -1 -42 -3z"/>
<path d="M3450 4809 c0 -5 5 -7 10 -4 6 3 10 8 10 11 0 2 -4 4 -10 4 -5 0 -10
-5 -10 -11z"/>
<path d="M4820 4781 c0 -6 4 -13 10 -16 6 -3 7 1 4 9 -7 18 -14 21 -14 7z"/>
<path d="M3155 4761 c-3 -5 -2 -12 3 -15 5 -3 9 1 9 9 0 17 -3 19 -12 6z"/>
<path d="M3154 4699 c-2 -33 4 -33 11 -1 2 12 1 24 -3 26 -4 2 -8 -9 -8 -25z"/>
<path d="M1770 4710 c-9 -6 -10 -10 -3 -10 6 0 15 5 18 10 8 12 4 12 -15 0z"/>
<path d="M4590 4710 c8 -5 24 -10 34 -10 26 0 18 6 -19 14 -22 5 -26 4 -15 -4z"/>
<path d="M1695 4703 c-11 -3 -24 -9 -29 -14 -6 -5 4 -5 21 0 18 5 34 7 37 3 3
-3 6 0 6 6 0 12 -2 13 -35 5z"/>
<path d="M4650 4702 c0 -5 6 -9 13 -9 6 0 34 -3 62 -7 27 -4 47 -5 44 -2 -3 3
-23 8 -45 11 -21 4 -47 8 -56 11 -10 3 -18 1 -18 -4z"/>
<path d="M4835 4689 c-4 -6 -14 -8 -22 -5 -8 3 -12 2 -9 -3 3 -5 14 -11 25
-14 15 -3 19 0 18 14 -1 22 -3 23 -12 8z"/>
<path d="M1496 4677 c3 -10 9 -15 12 -12 3 3 0 11 -7 18 -10 9 -11 8 -5 -6z"/>
<path d="M1580 4680 c-8 -5 -10 -10 -5 -10 6 0 17 5 25 10 8 5 11 10 5 10 -5
0 -17 -5 -25 -10z"/>
<path d="M1628 4683 c7 -3 16 -2 19 1 4 3 -2 6 -13 5 -11 0 -14 -3 -6 -6z"/>
<path d="M4865 4670 c2 -4 25 -10 50 -13 25 -4 57 -10 72 -13 16 -4 25 -4 22
0 -9 9 -150 35 -144 26z"/>
<path d="M1425 4655 l-50 -14 45 6 c25 3 52 9 60 14 20 11 5 10 -55 -6z"/>
<path d="M5025 4640 c3 -5 11 -10 16 -10 6 0 7 5 4 10 -3 6 -11 10 -16 10 -6
0 -7 -4 -4 -10z"/>
<path d="M1306 4632 c-3 -5 8 -6 25 -4 16 2 29 6 29 8 0 8 -49 4 -54 -4z"/>
<path d="M5087 4629 c7 -7 15 -10 18 -7 3 3 -2 9 -12 12 -14 6 -15 5 -6 -5z"/>
<path d="M1260 4620 c-8 -5 -10 -10 -5 -10 6 0 17 5 25 10 8 5 11 10 5 10 -5
0 -17 -5 -25 -10z"/>
<path d="M3153 4610 c-1 -11 2 -20 7 -20 4 0 7 7 6 15 -3 23 -12 26 -13 5z"/>
<path d="M471 4524 c0 -11 3 -14 6 -6 3 7 2 16 -1 19 -3 4 -6 -2 -5 -13z"/>
<path d="M2810 4516 c0 -2 7 -7 16 -10 8 -3 12 -2 9 4 -6 10 -25 14 -25 6z"/>
<path d="M3150 4501 c0 -6 4 -13 10 -16 6 -3 7 1 4 9 -7 18 -14 21 -14 7z"/>
<path d="M343 4464 c-15 -20 -36 -46 -46 -57 -17 -22 -18 -22 -13 11 6 43 -9
41 -25 -3 -7 -20 -18 -34 -24 -31 -6 2 -12 -7 -13 -21 -1 -14 -8 -37 -15 -51
-19 -36 -47 -121 -52 -155 -2 -16 -11 -42 -19 -58 -8 -16 -10 -29 -5 -29 6 0
7 -6 3 -12 -5 -9 -2 -9 9 1 20 16 21 12 7 -23 -6 -16 -6 -27 1 -31 5 -4 8 -3
7 2 -1 4 4 25 11 47 10 28 16 35 22 25 7 -12 9 -11 10 1 5 83 21 94 79 53 l25
-18 -23 32 c-37 52 -39 93 -7 131 21 25 23 32 11 32 -15 0 -15 3 -1 36 8 20
33 63 54 95 44 66 46 77 4 23z"/>
<path d="M6020 4496 c0 -5 18 -35 40 -67 22 -33 37 -59 33 -59 -4 0 -2 -5 5
-12 17 -17 15 -41 -3 -34 -21 7 -19 3 10 -28 34 -36 32 -77 -6 -140 l-31 -51
34 33 c19 17 39 32 45 32 17 0 36 -28 36 -55 0 -14 4 -28 10 -32 6 -3 7 -1 3
5 -4 7 -3 12 2 12 5 0 19 -28 31 -62 16 -48 20 -54 15 -25 -3 21 -8 46 -11 55
-6 14 -4 15 8 5 13 -11 15 -8 13 20 -2 18 -7 44 -13 59 -5 14 -7 28 -5 31 3 3
-1 19 -10 35 -8 16 -18 45 -21 63 -3 19 -13 41 -21 50 -7 8 -14 28 -14 43 0
16 -4 25 -10 21 -6 -4 -17 9 -25 29 -11 25 -19 34 -31 29 -10 -4 -12 -9 -5
-16 5 -5 7 -16 4 -23 -4 -10 -18 3 -44 38 -22 28 -39 48 -39 44z"/>
<path d="M586 4451 c-4 -5 3 -7 14 -4 23 6 26 13 6 13 -8 0 -17 -4 -20 -9z"/>
<path d="M5794 4452 c12 -11 96 -40 96 -33 0 4 -23 15 -51 24 -28 9 -48 13
-45 9z"/>
<path d="M3152 4421 c0 -17 1 -31 3 -31 7 0 12 39 5 49 -4 7 -7 -1 -8 -18z"/>
<path d="M445 4390 c-94 -46 -94 -54 0 -10 35 17 69 30 74 30 5 0 13 5 16 10
10 17 -6 11 -90 -30z"/>
<path d="M4875 4411 c-3 -5 -2 -12 3 -15 5 -3 9 1 9 9 0 17 -3 19 -12 6z"/>
<path d="M5906 4401 c11 -10 74 -32 74 -26 0 5 -68 35 -78 35 -3 0 -2 -4 4 -9z"/>
<path d="M2504 4351 c14 -22 26 -44 26 -47 0 -4 13 -28 29 -54 47 -76 103
-180 97 -180 -4 0 1 -8 10 -17 9 -10 52 -81 96 -158 44 -77 85 -144 91 -150
12 -12 -78 159 -103 195 -10 14 -30 48 -45 75 -102 185 -207 365 -216 371 -6
3 1 -12 15 -35z"/>
<path d="M3151 4349 c0 -19 3 -28 6 -21 2 6 9 9 15 6 5 -4 4 4 -2 17 -19 36
-20 35 -19 -2z"/>
<path d="M3767 4288 c-30 -51 -68 -117 -83 -145 -16 -29 -33 -53 -39 -53 -5 0
-23 9 -40 20 -16 11 -34 20 -40 20 -5 0 9 -12 33 -26 47 -28 48 -31 28 -59 -7
-11 -23 -36 -34 -55 -11 -19 -50 -86 -86 -148 -36 -62 -62 -111 -57 -108 5 4
53 80 106 171 54 91 99 165 101 165 2 0 52 -27 110 -60 58 -33 102 -56 99 -51
-3 5 -42 30 -88 55 -131 71 -125 58 -69 151 67 112 124 215 118 215 -2 0 -29
-42 -59 -92z"/>
<path d="M5990 4366 c0 -2 7 -7 16 -10 8 -3 12 -2 9 4 -6 10 -25 14 -25 6z"/>
<path d="M1949 4303 c-32 -51 -36 -64 -12 -33 23 28 46 70 39 70 -2 0 -15 -17
-27 -37z"/>
<path d="M3105 4320 c-3 -6 1 -7 9 -4 18 7 21 14 7 14 -6 0 -13 -4 -16 -10z"/>
<path d="M4372 4308 c8 -13 30 -50 48 -83 31 -55 78 -123 69 -100 -9 23 -120
205 -125 205 -4 0 0 -10 8 -22z"/>
<path d="M3240 4306 c0 -2 8 -10 18 -17 15 -13 16 -12 3 4 -13 16 -21 21 -21
13z"/>
<path d="M3044 4290 c-12 -5 -25 -13 -28 -19 -4 -5 7 -3 24 5 16 9 30 17 30
20 0 5 0 5 -26 -6z"/>
<path d="M3150 4280 c0 -5 5 -10 11 -10 5 0 7 5 4 10 -3 6 -8 10 -11 10 -2 0
-4 -4 -4 -10z"/>
<path d="M3310 4260 c8 -5 20 -10 25 -10 6 0 3 5 -5 10 -8 5 -19 10 -25 10 -5
0 -3 -5 5 -10z"/>
<path d="M2955 4240 c-16 -11 -25 -20 -20 -20 10 0 64 39 55 40 -3 0 -18 -9
-35 -20z"/>
<path d="M4930 4245 c-15 -18 -34 -20 -24 -2 4 6 -4 1 -17 -13 -27 -27 -30
-41 -5 -21 8 7 19 11 23 8 4 -3 16 6 26 19 20 26 17 33 -3 9z"/>
<path d="M1883 4198 c-12 -24 -34 -63 -49 -88 -15 -25 -22 -40 -16 -35 18 17
102 165 94 165 -4 0 -18 -19 -29 -42z"/>
<path d="M1410 4202 l-25 -24 27 17 c27 16 29 16 64 -4 20 -12 38 -20 40 -19
2 2 -16 15 -39 29 l-42 25 -25 -24z"/>
<path d="M3429 4201 c13 -12 28 -21 34 -21 12 0 11 0 -28 24 l-30 17 24 -20z"/>
<path d="M2868 4194 c-39 -21 -35 -28 5 -8 37 19 44 24 31 24 -5 -1 -21 -8
-36 -16z"/>
<path d="M4762 4151 c-76 -46 -97 -66 -27 -26 28 16 60 34 72 40 13 5 23 13
23 18 0 10 3 11 -68 -32z"/>
<path d="M1356 4165 c-11 -8 -15 -15 -9 -15 6 0 16 7 23 15 16 19 11 19 -14 0z"/>
<path d="M2201 4164 c0 -11 3 -14 6 -6 3 7 2 16 -1 19 -3 4 -6 -2 -5 -13z"/>
<path d="M3495 4165 c11 -9 29 -21 40 -26 l20 -10 -20 16 c-11 9 -29 21 -40
26 l-20 10 20 -16z"/>
<path d="M4970 4176 c0 -2 8 -10 18 -17 15 -13 16 -12 3 4 -13 16 -21 21 -21
13z"/>
<path d="M1000 4164 c0 -6 7 -19 16 -30 14 -18 14 -18 3 6 -14 31 -19 36 -19
24z"/>
<path d="M1534 4161 c7 -11 46 -35 46 -28 0 3 -12 12 -26 22 -15 9 -23 12 -20
6z"/>
<path d="M5313 4095 c-11 -30 -19 -55 -17 -55 7 0 45 92 42 101 -2 5 -13 -16
-25 -46z"/>
<path d="M1597 4119 c7 -7 15 -10 18 -7 3 3 -2 9 -12 12 -14 6 -15 5 -6 -5z"/>
<path d="M5055 4110 c10 -11 20 -20 23 -20 3 0 -3 9 -13 20 -10 11 -20 20 -23
20 -3 0 3 -9 13 -20z"/>
<path d="M2709 4103 c-13 -17 -13 -17 6 -3 11 8 22 16 24 17 2 2 0 3 -6 3 -6
0 -17 -8 -24 -17z"/>
<path d="M1021 4100 c0 -8 9 -33 20 -55 10 -22 16 -29 13 -16 -10 37 -33 88
-33 71z"/>
<path d="M1631 4107 c2 -1 13 -9 24 -17 19 -14 19 -14 6 3 -7 9 -18 17 -24 17
-6 0 -8 -1 -6 -3z"/>
<path d="M4508 4078 c22 -37 106 -180 159 -273 19 -33 37 -68 40 -77 3 -10 9
-18 15 -18 9 0 -3 24 -104 197 -33 57 -58 110 -55 117 4 9 1 13 -7 10 -7 -3
-20 12 -32 36 -10 22 -23 40 -27 40 -5 0 0 -15 11 -32z"/>
<path d="M645 4089 c-4 -6 -5 -12 -2 -15 2 -3 7 2 10 11 7 17 1 20 -8 4z"/>
<path d="M1680 4076 c0 -2 16 -13 36 -25 19 -12 32 -16 29 -11 -7 11 -65 43
-65 36z"/>
<path d="M4605 4060 c-39 -26 -25 -26 17 0 18 11 29 20 23 20 -5 0 -23 -9 -40
-20z"/>
<path d="M626 4043 c-6 -14 -5 -15 5 -6 7 7 10 15 7 18 -3 3 -9 -2 -12 -12z"/>
<path d="M1796 4044 c-4 -10 -12 -14 -24 -9 -13 5 -14 3 -5 -6 12 -12 8 -20
-66 -149 -44 -76 -46 -79 -71 -130 -36 -70 -7 -33 35 45 20 39 52 95 71 126
19 31 34 61 34 67 0 19 20 24 38 11 16 -13 15 -12 0 7 -14 15 -15 23 -6 32 6
6 9 14 6 17 -3 3 -8 -2 -12 -11z"/>
<path d="M5731 4040 c14 -31 19 -36 19 -24 0 6 -7 19 -16 30 -14 18 -14 18 -3
-6z"/>
<path d="M2600 4040 c-9 -6 -10 -10 -3 -10 6 0 15 5 18 10 8 12 4 12 -15 0z"/>
<path d="M376 4027 c3 -10 9 -15 12 -12 3 3 0 11 -7 18 -10 9 -11 8 -5 -6z"/>
<path d="M1179 4023 c-13 -16 -12 -17 4 -4 9 7 17 15 17 17 0 8 -8 3 -21 -13z"/>
<path d="M5157 4029 c7 -7 15 -10 18 -7 3 3 -2 9 -12 12 -14 6 -15 5 -6 -5z"/>
<path d="M2550 4009 c-22 -18 -22 -19 -3 -10 12 6 25 16 28 21 9 15 3 12 -25
-11z"/>
<path d="M5281 4003 c-10 -26 -10 -27 4 -9 8 11 15 23 15 28 0 15 -7 8 -19
-19z"/>
<path d="M4509 4003 c-13 -16 -12 -17 4 -4 9 7 17 15 17 17 0 8 -8 3 -21 -13z"/>
<path d="M420 3985 c13 -14 26 -25 28 -25 3 0 -5 11 -18 25 -13 14 -26 25 -28
25 -3 0 5 -11 18 -25z"/>
<path d="M1134 3988 l-19 -23 23 19 c21 18 27 26 19 26 -2 0 -12 -10 -23 -22z"/>
<path d="M135 3980 c3 -5 8 -10 11 -10 2 0 4 5 4 10 0 6 -5 10 -11 10 -5 0 -7
-4 -4 -10z"/>
<path d="M5919 3973 c-13 -16 -12 -17 4 -4 16 13 21 21 13 21 -2 0 -10 -8 -17
-17z"/>
<path d="M1857 3969 c7 -7 15 -10 18 -7 3 3 -2 9 -12 12 -14 6 -15 5 -6 -5z"/>
<path d="M3149 3929 c-2 -83 -13 -205 -25 -276 -12 -78 -47 -133 -83 -133 -16
0 -72 51 -102 94 -34 46 -36 44 -10 -15 28 -63 33 -110 15 -136 -12 -20 -20
-22 -61 -17 -63 7 -150 41 -290 113 -65 33 -118 59 -120 58 -1 -2 30 -23 70
-47 89 -55 212 -144 253 -185 87 -85 69 -125 -68 -150 -40 -7 -62 -14 -48 -15
14 -1 32 -3 40 -5 8 -2 30 -6 48 -9 42 -8 82 -34 82 -53 0 -51 -83 -129 -260
-246 -58 -38 -107 -71 -110 -74 -3 -2 58 27 135 65 189 95 285 124 321 97 26
-18 21 -82 -10 -152 -15 -32 -23 -53 -18 -48 4 6 27 33 50 62 53 64 92 81 120
50 35 -39 45 -83 67 -307 2 -14 3 -52 4 -84 2 -91 10 -62 16 58 5 102 8 128
21 218 3 21 5 39 3 40 -7 9 44 86 60 91 29 7 82 -34 142 -113 15 -19 13 -12
-6 31 -31 70 -39 133 -19 150 39 32 143 1 368 -112 78 -39 138 -68 135 -65 -3
3 -44 29 -90 57 -238 144 -350 257 -304 305 14 14 70 32 119 38 47 6 59 16 20
17 -16 0 -36 2 -44 4 -8 2 -25 6 -37 9 -59 13 -83 47 -62 88 19 39 99 106 220
186 64 42 125 83 135 90 11 6 -32 -13 -94 -43 -307 -151 -401 -158 -372 -29 6
25 19 65 30 88 21 44 16 40 -40 -33 -36 -48 -76 -74 -101 -66 -26 9 -56 73
-64 140 -3 28 -8 57 -11 66 -2 9 -7 67 -10 130 -5 121 -13 156 -15 68z"/>
<path d="M4445 3970 c-3 -6 1 -7 9 -4 18 7 21 14 7 14 -6 0 -13 -4 -16 -10z"/>
<path d="M1074 3955 c5 -30 28 -87 33 -81 3 3 -2 18 -10 34 -13 27 -13 32 2
48 15 17 15 17 -1 6 -13 -10 -17 -10 -21 0 -3 7 -4 4 -3 -7z"/>
<path d="M5246 3958 c3 -4 19 -17 37 -28 30 -21 31 -21 9 -1 -13 11 -21 24
-18 29 2 4 -4 8 -14 8 -10 0 -16 -4 -14 -8z"/>
<path d="M585 3949 c-4 -6 -5 -12 -2 -15 2 -3 7 2 10 11 7 17 1 20 -8 4z"/>
<path d="M1890 3956 c0 -3 9 -10 20 -16 11 -6 20 -8 20 -6 0 3 -9 10 -20 16
-11 6 -20 8 -20 6z"/>
<path d="M2445 3949 c-4 -6 -5 -12 -2 -15 2 -3 7 2 10 11 7 17 1 20 -8 4z"/>
<path d="M480 3925 c13 -14 26 -25 28 -25 3 0 -5 11 -18 25 -13 14 -26 25 -28
25 -3 0 5 -11 18 -25z"/>
<path d="M3921 3922 c66 -42 69 -44 69 -39 0 7 -95 67 -105 67 -5 0 11 -13 36
-28z"/>
<path d="M5781 3930 c14 -31 19 -36 19 -24 0 6 -7 19 -16 30 -14 18 -14 18 -3
-6z"/>
<path d="M2400 3919 c-22 -18 -22 -19 -3 -10 12 6 25 16 28 21 9 15 3 12 -25
-11z"/>
<path d="M4380 3930 c-9 -6 -10 -10 -3 -10 6 0 15 5 18 10 8 12 4 12 -15 0z"/>
<path d="M1940 3926 c0 -3 9 -10 20 -16 11 -6 20 -8 20 -6 0 3 -9 10 -20 16
-11 6 -20 8 -20 6z"/>
<path d="M5242 3905 c-17 -37 -14 -45 4 -12 9 16 14 31 11 33 -2 2 -9 -7 -15
-21z"/>
<path d="M566 3903 c-6 -14 -5 -15 5 -6 7 7 10 15 7 18 -3 3 -9 -2 -12 -12z"/>
<path d="M1020 3900 c-9 -6 -10 -10 -3 -10 6 0 15 5 18 10 8 12 4 12 -15 0z"/>
<path d="M1990 3896 c0 -3 9 -10 20 -16 11 -6 20 -8 20 -6 0 3 -9 10 -20 16
-11 6 -20 8 -20 6z"/>
<path d="M5350 3875 c13 -14 26 -25 28 -25 3 0 -5 11 -18 25 -13 14 -26 25
-28 25 -3 0 5 -11 18 -25z"/>
<path d="M4279 3873 c-13 -16 -12 -17 4 -4 16 13 21 21 13 21 -2 0 -10 -8 -17
-17z"/>
<path d="M5800 3878 c0 -4 4 -8 9 -8 6 0 12 4 15 8 3 5 -1 9 -9 9 -8 0 -15 -4
-15 -9z"/>
<path d="M547 3873 c-3 -2 13 -21 36 -41 48 -42 86 -69 47 -34 -14 13 -37 36
-52 52 -14 16 -29 26 -31 23z"/>
<path d="M2314 3864 c-18 -14 -18 -15 4 -4 12 6 22 13 22 15 0 8 -5 6 -26 -11z"/>
<path d="M4000 3876 c0 -2 7 -7 16 -10 8 -3 12 -2 9 4 -6 10 -25 14 -25 6z"/>
<path d="M2041 3866 c14 -12 89 -55 89 -51 0 6 -77 55 -86 55 -4 0 -5 -2 -3
-4z"/>
<path d="M4930 3860 c0 -5 5 -10 11 -10 5 0 7 5 4 10 -3 6 -8 10 -11 10 -2 0
-4 -4 -4 -10z"/>
<path d="M1110 3854 c0 -14 39 -104 45 -104 5 0 -4 24 -29 80 -8 19 -15 30
-16 24z"/>
<path d="M4230 3845 c-14 -8 -20 -14 -14 -15 5 0 19 7 30 15 24 18 16 19 -16
0z"/>
<path d="M5212 3823 c-15 -48 -8 -55 8 -8 7 20 10 38 8 41 -3 2 -10 -13 -16
-33z"/>
<path d="M1395 3840 c-3 -5 -1 -10 4 -10 6 0 11 5 11 10 0 6 -2 10 -4 10 -3 0
-8 -4 -11 -10z"/>
<path d="M935 3829 c-4 -6 -5 -12 -2 -15 2 -3 7 2 10 11 7 17 1 20 -8 4z"/>
<path d="M2173 3787 c-1 -23 1 -34 4 -24 5 18 13 21 29 10 5 -5 1 0 -9 9 -10
10 -16 22 -13 27 4 5 3 12 -2 15 -4 3 -9 -14 -9 -37z"/>
<path d="M4108 3811 c21 -18 21 -20 5 -30 -10 -6 -13 -11 -6 -11 6 0 14 4 18
10 3 5 12 7 20 3 28 -10 15 5 -22 26 -34 19 -36 19 -15 2z"/>
<path d="M4179 3813 c-13 -16 -12 -17 4 -4 16 13 21 21 13 21 -2 0 -10 -8 -17
-17z"/>
<path d="M4934 3697 c-2 -210 -33 -260 -101 -167 -36 49 -62 82 -52 66 11 -17
39 -118 39 -137 0 -27 -29 -51 -54 -43 -39 11 -140 66 -238 130 -54 35 -98 62
-98 59 0 -2 28 -25 63 -51 165 -126 247 -214 247 -265 0 -23 -6 -30 -42 -43
-24 -8 -54 -17 -68 -19 -24 -3 -24 -4 5 -11 17 -4 40 -9 53 -12 12 -2 31 -13
42 -24 16 -16 17 -24 9 -47 -14 -40 -127 -155 -230 -233 -80 -61 -77 -65 8
-10 122 80 233 140 259 140 47 0 54 -58 18 -150 -13 -34 -13 -34 4 -12 44 60
75 92 89 92 32 0 46 -69 47 -222 1 -82 4 -148 9 -148 4 0 8 17 9 38 2 51 4 79
12 137 28 212 61 249 128 146 17 -25 28 -37 25 -26 -25 92 -27 104 -17 130 9
24 14 26 43 20 43 -9 118 -48 195 -101 66 -46 95 -60 46 -22 -88 68 -189 172
-210 216 -14 31 -14 35 2 53 16 18 77 36 99 30 6 -1 6 1 2 6 -5 4 -27 12 -50
18 -52 13 -73 45 -52 85 18 34 95 113 173 178 35 29 61 52 58 52 -3 0 -33 -20
-68 -44 -122 -84 -206 -117 -233 -90 -16 16 -12 92 7 127 5 10 7 21 5 24 -3 3
-12 -8 -20 -24 -8 -15 -26 -38 -39 -50 -20 -19 -27 -21 -41 -10 -20 14 -44 96
-52 177 -3 30 -7 64 -10 75 -2 11 -4 37 -4 58 -1 20 -4 37 -8 37 -5 0 -9 -60
-9 -133z"/>
<path d="M5740 3820 c-9 -6 -10 -10 -3 -10 6 0 15 5 18 10 8 12 4 12 -15 0z"/>
<path d="M1385 3753 c-7 -73 -12 -113 -20 -153 -3 -14 -7 -34 -9 -45 -7 -32
-24 -73 -34 -79 -18 -11 -38 4 -67 49 -32 52 -39 56 -24 18 16 -42 20 -114 8
-129 -22 -27 -100 2 -211 77 -72 49 -83 50 -26 3 71 -59 166 -163 173 -192 5
-21 1 -31 -20 -49 -14 -13 -39 -23 -56 -23 -16 0 -29 -4 -29 -9 0 -6 8 -9 18
-8 29 2 81 -24 87 -44 12 -38 -47 -112 -180 -228 l-50 -43 61 40 c80 54 176
102 202 102 35 0 44 -23 33 -82 -5 -29 -13 -62 -16 -73 -4 -11 8 2 26 30 19
27 41 51 50 53 20 4 45 -34 53 -79 3 -19 8 -45 11 -59 3 -14 8 -51 11 -84 17
-156 21 -163 22 -38 1 130 16 235 36 252 18 14 52 -13 86 -68 17 -26 30 -39
30 -30 0 9 -4 19 -9 22 -5 3 -12 23 -16 43 -5 21 -9 43 -10 48 -6 26 15 55 40
55 39 0 259 -114 313 -163 12 -11 22 -16 22 -11 0 5 -35 34 -76 64 -99 71
-212 183 -220 217 -10 37 28 68 97 78 l54 8 -55 9 c-63 10 -100 31 -100 57 0
44 105 149 255 256 36 26 65 49 65 51 0 2 -47 -25 -104 -61 -166 -102 -245
-135 -275 -116 -20 13 -16 67 8 132 21 55 19 54 -36 -25 -66 -94 -98 -41 -98
166 0 70 -3 128 -6 128 -4 0 -10 -30 -14 -67z"/>
<path d="M874 3768 l-19 -23 23 19 c21 18 27 26 19 26 -2 0 -12 -10 -23 -22z"/>
<path d="M5477 3769 c12 -12 24 -21 27 -18 2 2 -8 13 -22 23 l-27 19 22 -24z"/>
<path d="M685 3750 c10 -11 20 -20 23 -20 3 0 -3 9 -13 20 -10 11 -20 20 -23
20 -3 0 3 -9 13 -20z"/>
<path d="M5182 3741 c-6 -17 -9 -31 -6 -31 7 0 25 52 20 57 -2 2 -8 -10 -14
-26z"/>
<path d="M5666 3755 c-11 -8 -15 -15 -9 -15 6 0 16 7 23 15 16 19 11 19 -14 0z"/>
<path d="M5530 3726 c0 -2 8 -10 18 -17 15 -13 16 -12 3 4 -13 16 -21 21 -21
13z"/>
<path d="M748 3698 c5 -7 11 -20 13 -30 3 -13 8 -11 24 10 15 21 15 24 2 13
-9 -7 -17 -9 -17 -3 0 5 -7 13 -16 16 -13 5 -14 3 -6 -6z"/>
<path d="M4144 3699 c-3 -6 -2 -15 3 -20 5 -5 9 -1 9 11 0 23 -2 24 -12 9z"/>
<path d="M5572 3683 c-24 -24 -24 -25 -2 -8 42 33 44 35 37 35 -4 0 -19 -12
-35 -27z"/>
<path d="M1589 3683 c-13 -16 -12 -17 4 -4 9 7 17 15 17 17 0 8 -8 3 -21 -13z"/>
<path d="M341 3654 c0 -11 3 -14 6 -6 3 7 2 16 -1 19 -3 4 -6 -2 -5 -13z"/>
<path d="M4140 3651 c0 -6 4 -13 10 -16 6 -3 7 1 4 9 -7 18 -14 21 -14 7z"/>
<path d="M2167 3643 c-2 -5 0 -19 4 -33 7 -23 7 -22 6 8 -1 33 -3 37 -10 25z"/>
<path d="M6024 3546 c-1 -51 -6 -101 -12 -112 -10 -17 -13 -14 -32 29 -22 50
-32 61 -23 25 12 -48 15 -100 7 -108 -5 -5 -23 -2 -40 6 -31 15 -42 24 -113
88 -41 38 -30 15 19 -37 102 -111 127 -195 61 -205 -30 -5 -26 -16 9 -29 57
-21 32 -92 -76 -213 -49 -54 -49 -54 -9 -23 22 18 56 46 75 63 63 53 91 34 73
-51 -11 -54 -9 -55 16 -9 34 63 49 27 47 -113 -1 -119 9 -106 19 23 8 114 24
152 49 118 19 -26 22 -23 18 27 -5 61 17 60 76 -2 l45 -46 -28 49 c-16 27 -32
54 -35 59 -15 21 -30 83 -24 98 3 9 15 19 25 22 18 6 18 8 -7 27 -33 27 -28
56 24 147 46 82 51 95 20 54 -29 -38 -71 -73 -88 -73 -8 0 -11 17 -8 55 1 30
2 55 0 55 -1 0 -7 -11 -12 -25 -21 -56 -46 -15 -56 93 -12 128 -19 131 -20 8z"/>
<path d="M336 3608 c-3 -13 -8 -48 -11 -78 -11 -107 -32 -140 -56 -86 -7 16
-8 12 -5 -19 9 -72 -24 -82 -72 -20 -33 41 -30 29 9 -49 40 -79 41 -106 7
-130 -19 -14 -19 -14 1 -21 38 -12 23 -83 -36 -179 l-25 -41 43 43 c58 59 91
47 67 -25 -4 -12 -3 -25 2 -28 6 -4 10 0 10 8 0 20 26 41 34 28 4 -5 9 -28 12
-51 3 -23 7 -49 9 -58 2 -9 4 -34 4 -54 1 -21 5 -38 9 -38 5 0 8 26 7 58 -3
74 5 142 16 142 5 0 18 -17 29 -37 22 -41 22 -44 6 43 -6 31 8 48 35 41 13 -4
54 -34 92 -67 37 -34 67 -57 67 -52 0 6 -3 12 -7 14 -20 8 -107 117 -127 158
-29 59 -28 72 12 92 36 17 54 31 37 28 -23 -5 -44 1 -59 15 -29 29 15 114 113
219 l46 50 -53 -45 c-140 -117 -155 -122 -151 -51 1 26 6 57 11 70 5 14 4 21
-1 17 -5 -3 -12 -18 -16 -34 -3 -16 -13 -35 -21 -41 -21 -18 -28 11 -28 113 1
89 -2 104 -10 65z"/>
<path d="M4146 3607 c3 -10 9 -15 12 -12 3 3 0 11 -7 18 -10 9 -11 8 -5 -6z"/>
<path d="M2165 3560 c2 -27 10 -33 12 -10 1 11 -2 22 -6 24 -4 3 -7 -4 -6 -14z"/>
<path d="M4146 3567 c3 -10 9 -15 12 -12 3 3 0 11 -7 18 -10 9 -11 8 -5 -6z"/>
<path d="M4144 3504 c0 -18 2 -32 4 -29 9 8 11 54 4 59 -4 2 -8 -11 -8 -30z"/>
<path d="M2164 3480 c0 -13 4 -16 10 -10 7 7 7 13 0 20 -6 6 -10 3 -10 -10z"/>
<path d="M4145 3451 c-3 -5 -2 -12 3 -15 5 -3 9 1 9 9 0 17 -3 19 -12 6z"/>
<path d="M2169 3448 c-6 -21 -5 -38 1 -38 5 0 8 9 7 20 -1 17 -5 26 -8 18z"/>
<path d="M4149 3418 c-4 -10 -5 -67 -1 -63 6 6 11 65 5 65 -2 0 -4 -1 -4 -2z"/>
<path d="M4151 3294 c0 -11 3 -14 6 -6 3 7 2 16 -1 19 -3 4 -6 -2 -5 -13z"/>
<path d="M4151 3254 c0 -11 3 -14 6 -6 3 7 2 16 -1 19 -3 4 -6 -2 -5 -13z"/>
<path d="M575 3220 c-3 -5 -1 -10 4 -10 6 0 11 5 11 10 0 6 -2 10 -4 10 -3 0
-8 -4 -11 -10z"/>
<path d="M606 3220 c8 -7 154 -8 159 -1 2 4 -34 7 -80 6 -46 0 -81 -2 -79 -5z"/>
<path d="M786 3220 c8 -7 144 -7 144 0 0 3 -33 6 -74 5 -41 0 -72 -2 -70 -5z"/>
<path d="M950 3216 c7 -7 13 -7 20 0 6 6 3 10 -10 10 -13 0 -16 -4 -10 -10z"/>
<path d="M1847 3223 c-3 -5 64 -8 149 -8 85 0 154 3 154 8 0 4 -67 7 -149 7
-83 0 -152 -3 -154 -7z"/>
<path d="M2165 3221 c3 -6 15 -8 27 -6 34 7 34 15 -1 15 -18 0 -30 -4 -26 -9z"/>
<path d="M2230 3223 c0 -9 289 -8 297 1 4 3 -62 6 -145 6 -84 0 -152 -3 -152
-7z"/>
<path d="M3782 3224 c8 -7 329 -7 336 1 3 3 -73 5 -168 5 -95 0 -171 -3 -168
-6z"/>
<path d="M4130 3226 c0 -2 6 -9 13 -15 10 -8 14 -7 14 4 0 8 -6 15 -14 15 -7
0 -13 -2 -13 -4z"/>
<path d="M4174 3223 c7 -7 77 -5 85 3 2 2 -17 4 -44 4 -27 0 -45 -3 -41 -7z"/>
<path d="M4270 3223 c0 -10 138 -8 147 1 3 3 -28 6 -70 6 -42 0 -77 -3 -77 -7z"/>
<path d="M4430 3222 c0 -5 14 -7 30 -4 17 2 30 6 30 8 0 2 -13 4 -30 4 -16 0
-30 -4 -30 -8z"/>
<path d="M5350 3226 c0 -2 7 -7 16 -10 8 -3 12 -2 9 4 -6 10 -25 14 -25 6z"/>
<path d="M5390 3220 c0 -5 7 -7 15 -4 8 4 15 8 15 10 0 2 -7 4 -15 4 -8 0 -15
-4 -15 -10z"/>
<path d="M5430 3221 c0 -9 38 -12 44 -3 2 4 -7 8 -20 8 -13 1 -24 -1 -24 -5z"/>
<path d="M5490 3220 c0 -5 5 -10 10 -10 6 0 10 5 10 10 0 6 -4 10 -10 10 -5 0
-10 -4 -10 -10z"/>
<path d="M5526 3221 c8 -9 44 -11 44 -3 0 4 -11 8 -25 8 -13 0 -22 -2 -19 -5z"/>
<path d="M5590 3220 c0 -5 7 -10 16 -10 8 0 12 5 9 10 -3 6 -10 10 -16 10 -5
0 -9 -4 -9 -10z"/>
<path d="M5630 3218 c0 -4 9 -7 20 -5 29 5 33 13 5 13 -14 0 -25 -4 -25 -8z"/>
<path d="M5690 3220 c0 -8 87 -6 94 1 3 3 -17 5 -44 5 -28 0 -50 -3 -50 -6z"/>
<path d="M98 3213 c6 -2 18 -2 25 0 6 3 1 5 -13 5 -14 0 -19 -2 -12 -5z"/>
<path d="M2160 3161 c0 -6 4 -13 10 -16 6 -3 7 1 4 9 -7 18 -14 21 -14 7z"/>
<path d="M4146 3117 c3 -10 9 -15 12 -12 3 3 0 11 -7 18 -10 9 -11 8 -5 -6z"/>
<path d="M2163 3084 c0 -17 2 -22 7 -13 5 6 6 18 3 26 -8 19 -10 16 -10 -13z"/>
<path d="M2163 3035 c0 -8 4 -12 9 -9 5 3 6 10 3 15 -9 13 -12 11 -12 -6z"/>
<path d="M4146 3023 c-6 -14 -5 -15 5 -6 7 7 10 15 7 18 -3 3 -9 -2 -12 -12z"/>
<path d="M2169 3008 c-5 -21 -6 -59 -1 -62 4 -2 8 11 8 30 0 27 -3 44 -7 32z"/>
<path d="M4149 2998 c-6 -20 -6 -39 0 -42 4 -3 7 6 7 20 0 20 -4 32 -7 22z"/>
<path d="M4147 2927 c-3 -8 -2 -20 3 -26 5 -9 8 -4 8 13 0 29 -3 32 -11 13z"/>
<path d="M2160 2921 c0 -6 4 -13 10 -16 6 -3 7 1 4 9 -7 18 -14 21 -14 7z"/>
<path d="M2160 2881 c0 -6 4 -13 10 -16 6 -3 7 1 4 9 -7 18 -14 21 -14 7z"/>
<path d="M4144 2840 c0 -13 4 -16 10 -10 7 7 7 13 0 20 -6 6 -10 3 -10 -10z"/>
<path d="M2166 2837 c3 -10 9 -15 12 -12 3 3 0 11 -7 18 -10 9 -11 8 -5 -6z"/>
<path d="M756 2775 c4 -10 -3 -27 -17 -43 -18 -21 -19 -23 -3 -9 11 9 23 15
25 12 3 -2 6 7 7 20 1 13 -3 27 -8 30 -6 3 -7 -1 -4 -10z"/>
<path d="M5593 2773 c-19 -13 -20 -17 -8 -29 7 -8 17 -14 21 -14 5 0 3 5 -4
12 -9 9 -8 16 5 30 19 22 15 22 -14 1z"/>
<path d="M1175 2761 c-10 -18 -36 -95 -28 -87 8 8 43 96 38 96 -2 0 -6 -4 -10
-9z"/>
<path d="M5886 2753 c-6 -14 -5 -15 5 -6 7 7 10 15 7 18 -3 3 -9 -2 -12 -12z"/>
<path d="M5160 2751 c0 -6 4 -13 10 -16 6 -3 7 1 4 9 -7 18 -14 21 -14 7z"/>
<path d="M4145 2739 c-4 -6 -5 -12 -2 -15 2 -3 7 2 10 11 7 17 1 20 -8 4z"/>
<path d="M1610 2728 c0 -6 126 -236 151 -275 11 -18 10 -24 -2 -40 -13 -16
-12 -17 3 -5 15 12 20 9 40 -32 12 -25 25 -46 29 -46 4 0 -9 30 -30 68 -197
353 -191 343 -191 330z"/>
<path d="M2831 2673 c-19 -31 -59 -101 -91 -157 -31 -55 -90 -159 -131 -231
-107 -185 -143 -251 -131 -240 10 9 332 564 332 571 0 2 14 26 31 54 17 28 30
53 28 54 -2 2 -19 -21 -38 -51z"/>
<path d="M4644 2596 c-90 -166 -95 -172 -125 -156 -13 7 -19 8 -14 2 6 -6 33
-22 60 -37 38 -20 44 -21 25 -6 -14 11 -28 21 -32 21 -4 0 7 24 26 53 43 67
139 247 133 247 -3 0 -36 -56 -73 -124z"/>
<path d="M5182 2710 c30 -87 52 -140 55 -137 4 5 -45 138 -54 146 -3 4 -4 -1
-1 -9z"/>
<path d="M5630 2716 c0 -2 8 -10 18 -17 15 -13 16 -12 3 4 -13 16 -21 21 -21
13z"/>
<path d="M686 2695 c-11 -8 -15 -15 -9 -15 6 0 16 7 23 15 16 19 11 19 -14 0z"/>
<path d="M2169 2698 c-1 -7 -1 -17 0 -22 1 -5 -6 -18 -16 -30 -13 -15 -13 -17
-2 -8 9 6 20 8 24 4 5 -4 5 -1 1 6 -4 7 -1 12 8 12 8 0 17 4 20 9 3 5 -2 8
-12 7 -11 -1 -16 5 -14 17 2 9 0 17 -3 17 -3 0 -6 -6 -6 -12z"/>
<path d="M2230 2689 c0 -5 5 -7 10 -4 6 3 10 8 10 11 0 2 -4 4 -10 4 -5 0 -10
-5 -10 -11z"/>
<path d="M3491 2630 c23 -41 50 -87 60 -102 11 -14 19 -28 19 -31 0 -3 16 -33
36 -66 20 -33 33 -64 31 -68 -3 -5 -33 -22 -66 -38 -34 -17 -61 -33 -61 -37 0
-7 102 44 126 63 7 6 27 -19 59 -73 26 -46 62 -105 78 -133 17 -27 36 -61 44
-75 7 -14 13 -19 13 -13 0 7 -18 42 -40 78 -22 36 -40 68 -40 71 0 3 -16 30
-36 61 -61 96 -62 91 30 145 45 26 77 48 73 48 -4 0 -42 -20 -84 -45 -70 -40
-78 -43 -88 -27 -6 9 -44 74 -84 144 -39 70 -81 137 -92 150 -10 13 -1 -11 22
-52z"/>
<path d="M5499 2683 c-13 -16 -12 -17 4 -4 9 7 17 15 17 17 0 8 -8 3 -21 -13z"/>
<path d="M4140 2665 c0 -8 -4 -15 -10 -15 -5 0 -10 -5 -10 -11 0 -8 4 -9 13 0
8 6 16 8 20 5 3 -3 3 3 0 15 -6 24 -13 28 -13 6z"/>
<path d="M619 2633 l-34 -38 40 35 c22 19 42 36 44 38 2 1 0 2 -5 2 -6 0 -26
-17 -45 -37z"/>
<path d="M900 2646 c0 -2 8 -10 18 -17 15 -13 16 -12 3 4 -13 16 -21 21 -21
13z"/>
<path d="M2225 2635 c11 -9 29 -21 40 -26 l20 -10 -20 16 c-11 9 -29 21 -40
26 l-20 10 20 -16z"/>
<path d="M1111 2603 c-10 -26 -10 -27 4 -9 8 11 15 23 15 28 0 15 -7 8 -19
-19z"/>
<path d="M2099 2613 c-13 -17 -13 -17 6 -3 11 8 22 16 24 17 2 2 0 3 -6 3 -6
0 -17 -8 -24 -17z"/>
<path d="M4090 2619 c0 -5 5 -7 10 -4 6 3 10 8 10 11 0 2 -4 4 -10 4 -5 0 -10
-5 -10 -11z"/>
<path d="M5740 2626 c0 -2 8 -10 18 -17 15 -13 16 -12 3 4 -13 16 -21 21 -21
13z"/>
<path d="M4200 2616 c0 -2 7 -7 16 -10 8 -3 12 -2 9 4 -6 10 -25 14 -25 6z"/>
<path d="M940 2606 c0 -2 8 -10 18 -17 15 -13 16 -12 3 4 -13 16 -21 21 -21
13z"/>
<path d="M556 2585 c-11 -8 -15 -15 -9 -15 6 0 16 7 23 15 16 19 11 19 -14 0z"/>
<path d="M2055 2590 c-3 -6 1 -7 9 -4 18 7 21 14 7 14 -6 0 -13 -4 -16 -10z"/>
<path d="M2302 2584 c10 -10 20 -16 22 -13 3 3 -5 11 -17 18 -21 13 -21 12 -5
-5z"/>
<path d="M4020 2579 c-22 -18 -22 -19 -3 -10 12 6 25 16 28 21 9 15 3 12 -25
-11z"/>
<path d="M4270 2581 c0 -5 7 -12 16 -15 14 -5 15 -4 4 9 -14 17 -20 19 -20 6z"/>
<path d="M1396 2567 c3 -10 9 -15 12 -12 3 3 0 11 -7 18 -10 9 -11 8 -5 -6z"/>
<path d="M1994 2554 c-18 -14 -18 -15 4 -4 12 6 22 13 22 15 0 8 -5 6 -26 -11z"/>
<path d="M2352 2554 c10 -10 20 -16 22 -13 3 3 -5 11 -17 18 -21 13 -21 12 -5
-5z"/>
<path d="M5801 2568 c2 -2 20 -16 39 -33 l35 -30 -29 33 c-17 17 -34 32 -40
32 -5 0 -7 -1 -5 -2z"/>
<path d="M514 2538 l-19 -23 23 19 c21 18 27 26 19 26 -2 0 -12 -10 -23 -22z"/>
<path d="M3970 2549 c0 -5 5 -7 10 -4 6 3 10 8 10 11 0 2 -4 4 -10 4 -5 0 -10
-5 -10 -11z"/>
<path d="M1086 2535 c-9 -26 -7 -32 5 -12 6 10 9 21 6 23 -2 3 -7 -2 -11 -11z"/>
<path d="M4330 2546 c0 -3 9 -10 20 -16 11 -6 20 -8 20 -6 0 3 -9 10 -20 16
-11 6 -20 8 -20 6z"/>
<path d="M5246 2537 c3 -10 9 -15 12 -12 3 3 0 11 -7 18 -10 9 -11 8 -5 -6z"/>
<path d="M2390 2536 c0 -2 8 -10 18 -17 15 -13 16 -12 3 4 -13 16 -21 21 -21
13z"/>
<path d="M3935 2530 c-3 -6 1 -7 9 -4 18 7 21 14 7 14 -6 0 -13 -4 -16 -10z"/>
<path d="M1035 2520 c3 -5 8 -10 11 -10 2 0 4 5 4 10 0 6 -5 10 -11 10 -5 0
-7 -4 -4 -10z"/>
<path d="M5781 2503 c-10 -26 -10 -27 4 -9 8 11 15 23 15 28 0 15 -7 8 -19
-19z"/>
<path d="M469 2503 c-13 -16 -12 -17 4 -4 9 7 17 15 17 17 0 8 -8 3 -21 -13z"/>
<path d="M3873 2497 c-23 -12 -43 -26 -43 -30 0 -8 63 26 85 45 14 13 4 9 -42
-15z"/>
<path d="M1067 2499 c10 -10 10 -16 0 -28 -11 -14 -10 -14 6 -2 9 7 17 17 17
21 0 4 -8 11 -17 15 -14 5 -15 4 -6 -6z"/>
<path d="M5257 2490 c-2 -9 2 -17 9 -17 7 0 11 4 8 8 -2 4 4 12 13 18 16 9 16
10 -4 8 -12 0 -24 -8 -26 -17z"/>
<path d="M2455 2493 c6 -6 28 -20 50 -32 22 -13 31 -15 20 -6 -22 18 -86 53
-70 38z"/>
<path d="M4411 2497 c2 -1 13 -9 24 -17 19 -14 19 -14 6 3 -7 9 -18 17 -24 17
-6 0 -8 -1 -6 -3z"/>
<path d="M5755 2440 c-9 -16 -13 -30 -11 -30 3 0 12 14 21 30 9 17 13 30 11
30 -3 0 -12 -13 -21 -30z"/>
<path d="M131 2453 c-1 -6 4 -24 10 -39 11 -31 4 -78 -11 -69 -14 9 -12 -6 5
-35 8 -14 14 -35 15 -48 0 -13 7 -36 14 -51 8 -15 16 -39 18 -52 2 -13 8 -31
13 -39 5 -8 10 -19 11 -25 5 -31 11 -41 25 -52 9 -7 20 -24 23 -38 4 -14 11
-25 16 -25 5 0 7 -8 3 -17 -3 -10 -3 -15 1 -11 12 10 14 42 3 56 -5 7 -7 15
-3 19 3 4 14 -3 22 -16 29 -41 64 -77 58 -58 -3 9 -10 17 -14 17 -4 0 -10 8
-14 18 -3 9 -17 35 -31 57 -27 43 -32 75 -13 75 6 0 1 11 -12 25 -32 34 -30
84 4 135 34 51 33 55 -3 19 -16 -16 -36 -29 -45 -29 -13 0 -29 33 -31 63 0 4
-4 7 -10 6 -5 0 -19 28 -31 63 -13 35 -23 58 -23 51z"/>
<path d="M590 2456 c0 -2 8 -10 18 -17 15 -13 16 -12 3 4 -13 16 -21 21 -21
13z"/>
<path d="M5280 2451 c0 -6 4 -13 10 -16 6 -3 7 1 4 9 -7 18 -14 21 -14 7z"/>
<path d="M1046 2435 c-9 -26 -7 -32 5 -12 6 10 9 21 6 23 -2 3 -7 -2 -11 -11z"/>
<path d="M5940 2446 c0 -2 8 -10 18 -17 15 -13 16 -12 3 4 -13 16 -21 21 -21
13z"/>
<path d="M6245 2440 c-3 -5 -4 -10 -2 -10 3 0 -3 -21 -12 -47 -10 -27 -23 -47
-29 -45 -7 1 -12 -5 -12 -13 0 -36 -15 -65 -35 -65 -7 0 -28 12 -47 28 -32 27
-33 27 -15 2 53 -74 56 -123 11 -165 -20 -19 -21 -23 -7 -21 26 2 19 -25 -28
-103 l-39 -66 41 45 c33 36 40 40 36 22 -5 -20 -3 -21 10 -10 15 12 15 11 4
-10 -7 -13 -10 -26 -7 -30 4 -3 14 13 23 37 9 23 21 40 28 38 6 -3 12 8 13 27
1 17 9 36 17 42 8 6 15 20 15 30 1 10 8 37 16 59 8 22 16 54 18 71 2 17 12 46
21 65 15 28 15 32 2 21 -13 -11 -16 -10 -22 7 -3 12 -4 30 0 40 15 48 15 75 0
51z"/>
<path d="M2550 2436 c0 -3 9 -10 20 -16 11 -6 20 -8 20 -6 0 3 -9 10 -20 16
-11 6 -20 8 -20 6z"/>
<path d="M380 2411 c0 -6 4 -13 10 -16 6 -3 7 1 4 9 -7 18 -14 21 -14 7z"/>
<path d="M5297 2413 c-2 -5 9 -39 24 -78 15 -38 28 -65 28 -59 1 5 -10 38 -23
71 -13 34 -21 64 -18 67 3 3 3 6 -1 6 -3 0 -8 -3 -10 -7z"/>
<path d="M5980 2405 c0 -8 4 -15 10 -15 5 0 7 7 4 15 -4 8 -8 15 -10 15 -2 0
-4 -7 -4 -15z"/>
<path d="M615 2400 c3 -5 8 -10 11 -10 2 0 4 5 4 10 0 6 -5 10 -11 10 -5 0 -7
-4 -4 -10z"/>
<path d="M4519 2378 c-7 -13 -19 -33 -27 -45 -8 -13 -10 -23 -5 -23 5 0 19 20
31 45 22 46 23 64 1 23z"/>
<path d="M106 2377 c3 -10 9 -15 12 -12 3 3 0 11 -7 18 -10 9 -11 8 -5 -6z"/>
<path d="M795 2359 c3 -19 7 -56 11 -84 10 -79 12 -142 4 -154 -6 -12 -40 -5
-40 8 -1 3 -11 19 -24 35 l-24 29 19 -54 c14 -44 15 -55 4 -57 -20 -5 -64 21
-115 68 -78 73 -96 86 -59 45 84 -93 105 -119 132 -157 15 -23 27 -47 27 -55
0 -14 -39 -34 -52 -26 -5 2 -8 2 -8 -1 0 -3 16 -13 35 -22 66 -31 57 -79 -30
-149 -25 -21 -45 -42 -45 -49 0 -6 6 -4 13 5 18 24 73 49 117 54 49 5 70 -19
71 -80 0 -35 2 -37 11 -18 29 60 59 24 114 -137 19 -58 33 -91 30 -75 -21 114
-28 184 -22 201 7 17 13 13 52 -31 l44 -50 -22 53 c-42 99 -7 90 172 -46 l85
-64 -87 81 c-111 104 -165 176 -148 196 7 8 27 15 44 15 l31 1 -43 21 c-56 27
-69 51 -46 86 22 36 67 75 131 115 69 42 68 53 -1 16 -67 -37 -155 -67 -181
-63 -32 5 -46 33 -40 82 3 25 8 48 11 53 3 5 3 9 1 9 -3 0 -14 -16 -26 -35
-11 -19 -27 -35 -35 -35 -31 0 -77 128 -100 277 -5 30 -14 22 -11 -8z"/>
<path d="M1022 2361 c-6 -17 -7 -31 -3 -31 8 0 22 52 16 58 -1 2 -7 -11 -13
-27z"/>
<path d="M5553 2372 c-4 -41 -45 -198 -64 -243 -26 -60 -51 -65 -77 -13 l-18
36 0 -66 c1 -74 -7 -86 -58 -80 -34 3 -145 46 -182 71 -13 8 -24 13 -24 10 0
-4 26 -24 58 -45 75 -52 110 -85 122 -118 13 -33 0 -51 -57 -76 -50 -22 -54
-28 -15 -22 15 3 36 -2 46 -9 19 -14 19 -15 -2 -48 -19 -32 -87 -102 -192
-199 l-45 -42 45 35 c106 82 203 147 221 147 25 0 25 -34 -1 -85 l-20 -40 45
50 c36 41 46 47 54 35 11 -16 8 -72 -9 -144 -16 -73 -5 -67 20 11 52 162 78
195 115 149 l20 -25 -3 42 c-6 83 44 100 153 53 35 -15 50 -18 35 -8 -57 39
-110 95 -110 117 0 23 21 47 55 60 19 7 18 9 -7 18 -16 6 -28 18 -28 27 0 25
65 111 149 197 7 8 12 16 9 18 -2 2 -24 -16 -49 -39 -48 -47 -117 -89 -131
-80 -9 6 0 54 13 69 5 5 9 18 9 30 0 17 -3 15 -18 -10 -25 -40 -48 -58 -63
-49 -14 8 -2 208 16 261 2 7 1 14 -3 17 -4 3 -8 -3 -9 -12z"/>
<path d="M1224 2371 c7 -11 46 -35 46 -28 0 3 -12 12 -26 22 -15 9 -23 12 -20
6z"/>
<path d="M4621 2377 c2 -1 13 -9 24 -17 19 -14 19 -14 6 3 -7 9 -18 17 -24 17
-6 0 -8 -1 -6 -3z"/>
<path d="M2680 2356 c0 -2 7 -7 16 -10 8 -3 12 -2 9 4 -6 10 -25 14 -25 6z"/>
<path d="M5706 2333 c-6 -14 -5 -15 5 -6 7 7 10 15 7 18 -3 3 -9 -2 -12 -12z"/>
<path d="M1595 2320 c-16 -11 -25 -20 -20 -20 10 0 64 39 55 40 -3 0 -18 -9
-35 -20z"/>
<path d="M4695 2330 c3 -5 8 -10 11 -10 2 0 4 5 4 10 0 6 -5 10 -11 10 -5 0
-7 -4 -4 -10z"/>
<path d="M1005 2309 c-4 -6 -5 -12 -2 -15 2 -3 7 2 10 11 7 17 1 20 -8 4z"/>
<path d="M1300 2316 c0 -2 8 -10 18 -17 15 -13 16 -12 3 4 -13 16 -21 21 -21
13z"/>
<path d="M1840 2315 c0 -6 11 -27 25 -47 14 -20 25 -40 25 -43 0 -3 16 -29 35
-58 49 -73 44 -53 -11 40 -56 95 -74 121 -74 108z"/>
<path d="M4720 2316 c0 -2 7 -7 16 -10 8 -3 12 -2 9 4 -6 10 -25 14 -25 6z"/>
<path d="M2777 2299 c7 -7 15 -10 18 -7 3 3 -2 9 -12 12 -14 6 -15 5 -6 -5z"/>
<path d="M2194 2247 c4 -32 7 -110 7 -172 2 -189 -25 -216 -119 -119 -30 31
-52 52 -50 47 27 -55 41 -93 42 -118 1 -28 -1 -30 -32 -28 -37 1 -178 66 -245
111 -40 28 -97 60 -87 50 3 -3 59 -46 125 -96 131 -98 172 -137 177 -166 4
-28 -32 -44 -93 -41 -49 2 -60 -2 -22 -9 99 -20 143 -51 126 -89 -13 -28 -99
-87 -178 -123 -30 -14 -55 -27 -55 -29 0 -1 48 13 107 32 114 37 192 45 218
23 17 -14 17 -59 0 -105 -6 -14 0 -11 21 11 65 69 100 51 138 -68 26 -81 34
-115 35 -150 1 -10 4 -18 9 -18 4 0 6 46 5 103 -3 165 28 195 116 109 28 -26
51 -47 51 -46 0 2 -9 18 -20 37 -39 65 -32 110 13 101 12 -2 34 -6 48 -9 26
-5 55 -17 212 -86 112 -50 121 -49 27 2 -144 78 -250 160 -250 193 0 19 52 36
108 36 53 0 52 7 -4 16 -54 8 -103 30 -110 49 -14 36 63 100 231 190 94 50
106 63 23 26 -97 -43 -245 -92 -287 -95 -70 -5 -90 47 -50 133 l20 44 -42 -47
c-54 -61 -77 -70 -107 -43 -23 22 -68 148 -77 218 -3 23 -8 55 -11 73 -3 17
-7 46 -9 64 -1 18 -6 36 -10 40 -3 4 -4 -19 -1 -51z"/>
<path d="M4418 2204 c-67 -109 -70 -126 -5 -26 50 77 70 112 65 117 -2 2 -29
-39 -60 -91z"/>
<path d="M4994 2278 l-19 -23 25 20 c14 11 27 21 29 22 2 2 0 3 -6 3 -5 0 -18
-10 -29 -22z"/>
<path d="M1514 2274 c-18 -14 -18 -15 4 -4 12 6 22 13 22 15 0 8 -5 6 -26 -11z"/>
<path d="M2830 2271 c14 -11 30 -21 35 -21 11 0 -7 14 -40 31 -13 7 -12 3 5
-10z"/>
<path d="M4780 2286 c0 -3 9 -10 20 -16 11 -6 20 -8 20 -6 0 3 -9 10 -20 16
-11 6 -20 8 -20 6z"/>
<path d="M3455 2260 c-39 -26 -25 -26 17 0 18 11 29 20 23 20 -5 0 -23 -9 -40
-20z"/>
<path d="M4113 2273 c3 -5 -1 -48 -9 -98 -31 -205 -67 -295 -117 -295 -12 0
-41 21 -70 53 -41 43 -46 47 -33 21 23 -47 31 -111 16 -129 -27 -33 -162 -3
-337 74 -87 39 -53 12 67 -54 95 -52 180 -117 180 -139 0 -24 -39 -48 -96 -62
-32 -7 -62 -10 -68 -7 -6 3 -7 2 -3 -2 4 -5 32 -10 63 -12 59 -3 94 -16 94
-36 0 -35 -137 -136 -271 -200 -37 -17 -68 -35 -68 -39 -1 -6 43 12 144 57 82
38 192 76 227 80 58 6 65 -18 28 -90 l-29 -57 50 51 c95 96 129 62 125 -126
-1 -62 0 -111 1 -109 2 2 10 39 18 82 28 146 64 224 105 224 10 0 36 -18 58
-40 l40 -40 -14 38 c-42 118 14 135 222 68 111 -36 149 -42 72 -11 -57 22
-153 81 -184 112 -46 46 -24 74 84 102 23 7 42 13 42 14 0 1 -25 3 -55 3 -51
1 -85 15 -85 35 0 21 83 97 197 181 68 49 123 92 123 95 0 3 -10 -2 -22 -11
-57 -40 -228 -132 -275 -148 -41 -14 -58 -16 -74 -8 -23 13 -20 29 17 102 30
59 30 69 2 32 -43 -55 -91 -94 -116 -94 -7 0 -20 17 -29 37 -12 31 -14 67 -11
195 3 91 1 158 -4 158 -5 0 -7 -3 -5 -7z"/>
<path d="M1367 2259 c7 -7 15 -10 18 -7 3 3 -2 9 -12 12 -14 6 -15 5 -6 -5z"/>
<path d="M4830 2256 c0 -3 9 -10 20 -16 11 -6 20 -8 20 -6 0 3 -9 10 -20 16
-11 6 -20 8 -20 6z"/>
<path d="M5350 2251 c0 -6 4 -13 10 -16 6 -3 7 1 4 9 -7 18 -14 21 -14 7z"/>
<path d="M2880 2246 c0 -2 8 -10 18 -17 15 -13 16 -12 3 4 -13 16 -21 21 -21
13z"/>
<path d="M1413 2224 c0 -8 7 -14 14 -14 8 0 11 -5 7 -12 -4 -7 -3 -8 4 -4 6 4
9 13 6 21 -8 19 -31 26 -31 9z"/>
<path d="M3341 2200 c-41 -21 -79 -44 -85 -50 -12 -12 143 67 159 82 16 15 1
8 -74 -32z"/>
<path d="M4920 2225 c-10 -12 -15 -13 -28 -3 -14 12 -14 10 -1 -10 13 -21 15
-21 26 -5 7 9 19 20 25 25 9 5 9 8 2 8 -6 0 -17 -7 -24 -15z"/>
<path d="M2924 2221 c7 -11 46 -35 46 -28 0 3 -12 12 -26 22 -15 9 -23 12 -20
6z"/>
<path d="M2985 2180 c3 -4 14 -10 25 -13 11 -3 18 -2 15 3 -3 4 -14 10 -25 13
-11 3 -18 2 -15 -3z"/>
<path d="M1433 2145 c0 -8 4 -12 9 -9 5 3 6 10 3 15 -9 13 -12 11 -12 -6z"/>
<path d="M3040 2156 c0 -2 7 -7 16 -10 8 -3 12 -2 9 4 -6 10 -25 14 -25 6z"/>
<path d="M3182 2116 c-24 -13 -38 -27 -33 -31 6 -3 11 -3 11 1 0 3 8 0 18 -7
15 -13 16 -12 4 3 -12 15 -10 19 17 33 17 8 31 18 31 20 0 7 0 7 -48 -19z"/>
<path d="M357 2079 c7 -7 15 -10 18 -7 3 3 -2 9 -12 12 -14 6 -15 5 -6 -5z"/>
<path d="M415 2052 c12 -12 156 -72 170 -72 5 1 -21 14 -60 31 -99 44 -122 52
-110 41z"/>
<path d="M5957 2050 c-16 -5 -34 -13 -40 -18 -7 -5 -38 -19 -70 -32 -31 -12
-60 -26 -63 -31 -2 -4 20 3 51 16 31 14 62 25 70 25 8 0 15 4 15 9 0 5 13 12
30 16 16 4 32 11 35 16 4 5 5 9 3 8 -2 0 -16 -5 -31 -9z"/>
<path d="M3153 2031 c0 -11 5 -18 9 -15 4 3 5 11 1 19 -7 21 -12 19 -10 -4z"/>
<path d="M5745 1960 c-3 -6 1 -7 9 -4 18 7 21 14 7 14 -6 0 -13 -4 -16 -10z"/>
<path d="M3151 1924 c0 -11 3 -14 6 -6 3 7 2 16 -1 19 -3 4 -6 -2 -5 -13z"/>
<path d="M360 1926 c0 -2 8 -10 18 -17 15 -13 16 -12 3 4 -13 16 -21 21 -21
13z"/>
<path d="M457 1840 c4 -54 0 -59 -30 -32 -19 16 -20 16 -8 -5 20 -39 -7 -26
-35 17 -15 22 -28 40 -31 40 -5 0 15 -37 46 -84 18 -28 22 -41 13 -44 -9 -3
-6 -11 8 -29 23 -29 25 -53 8 -72 -11 -10 -9 -12 8 -9 26 4 54 -18 54 -43 0
-10 5 -21 10 -24 6 -3 10 0 10 7 0 15 39 -32 40 -48 0 -5 7 -19 15 -30 14 -18
14 -17 5 9 -15 43 -12 52 11 31 22 -19 22 -19 10 3 -22 42 -5 45 45 7 45 -35
43 -25 -6 24 -45 45 -50 62 -17 62 21 1 21 1 -4 15 -38 21 -43 42 -14 67 30
26 33 43 6 28 -34 -18 -60 -12 -67 14 -3 14 -3 30 1 35 11 18 -7 12 -20 -6
-12 -16 -15 -13 -29 22 -9 21 -14 45 -12 52 3 7 1 15 -5 18 -5 4 -7 11 -4 16
4 5 2 9 -3 9 -6 0 -8 -22 -5 -50z"/>
<path d="M5945 1858 c-2 -7 -6 -27 -8 -44 -5 -33 -24 -74 -34 -74 -3 0 -12 8
-19 18 -12 15 -13 14 -8 -14 9 -47 -11 -56 -74 -34 -29 10 -50 14 -47 9 4 -5
11 -9 17 -9 5 0 24 -15 40 -32 l30 -33 -33 -29 c-19 -16 -29 -26 -24 -23 6 3
17 2 24 -3 10 -6 2 -21 -35 -61 -43 -47 -45 -50 -14 -27 61 44 64 44 56 12 -6
-27 -5 -28 9 -10 20 26 20 1 0 -38 -27 -51 -10 -38 21 17 16 28 36 52 44 52 8
0 16 9 18 20 6 28 23 47 38 41 19 -7 27 10 15 33 -8 15 -5 24 14 45 26 28 32
42 15 31 -19 -12 -10 17 20 61 35 50 32 58 -6 17 -17 -18 -24 -22 -20 -10 3 9
3 17 -1 17 -3 0 -12 -8 -20 -17 -12 -16 -13 -11 -11 40 3 57 1 68 -7 45z"/>
<path d="M1300 1806 c0 -2 9 -6 20 -9 11 -3 18 -1 14 4 -5 9 -34 13 -34 5z"/>
<path d="M5059 1806 c-3 -3 -20 -8 -39 -11 -19 -3 -37 -8 -40 -11 -3 -3 13 -3
35 1 22 4 45 7 52 8 7 0 10 4 7 9 -6 9 -9 10 -15 4z"/>
<path d="M1358 1793 c7 -3 16 -2 19 1 4 3 -2 6 -13 5 -11 0 -14 -3 -6 -6z"/>
<path d="M1398 1788 c5 -5 16 -8 23 -6 8 3 3 7 -10 11 -17 4 -21 3 -13 -5z"/>
<path d="M1470 1776 c0 -2 7 -6 15 -10 8 -3 15 -1 15 4 0 6 -7 10 -15 10 -8 0
-15 -2 -15 -4z"/>
<path d="M4908 1773 c6 -2 18 -2 25 0 6 3 1 5 -13 5 -14 0 -19 -2 -12 -5z"/>
<path d="M4825 1760 c-18 -8 -17 -9 7 -9 15 -1 30 4 33 9 7 12 -12 12 -40 0z"/>
<path d="M1570 1756 c0 -2 9 -6 20 -9 11 -3 20 -1 20 4 0 5 -9 9 -20 9 -11 0
-20 -2 -20 -4z"/>
<path d="M4765 1749 c-3 -4 2 -6 10 -5 21 3 28 13 10 13 -9 0 -18 -4 -20 -8z"/>
<path d="M1638 1743 c7 -3 16 -2 19 1 4 3 -2 6 -13 5 -11 0 -14 -3 -6 -6z"/>
<path d="M1670 1740 c0 -5 5 -10 10 -10 6 0 10 5 10 10 0 6 -4 10 -10 10 -5 0
-10 -4 -10 -10z"/>
<path d="M4693 1740 c-31 -12 -29 -22 1 -10 13 5 27 6 30 3 3 -4 6 -1 6 5 0
14 -7 14 -37 2z"/>
<path d="M1718 1733 c7 -3 16 -2 19 1 4 3 -2 6 -13 5 -11 0 -14 -3 -6 -6z"/>
<path d="M4635 1730 c-16 -7 -17 -9 -3 -9 9 -1 20 4 23 9 7 11 7 11 -20 0z"/>
<path d="M4556 1722 c-3 -5 1 -9 9 -9 8 0 12 4 9 9 -3 4 -7 8 -9 8 -2 0 -6 -4
-9 -8z"/>
<path d="M2830 1630 c0 -6 7 -10 15 -10 8 0 15 2 15 4 0 2 -7 6 -15 10 -8 3
-15 1 -15 -4z"/>
<path d="M2870 1626 c0 -8 61 -12 66 -4 3 4 -11 8 -30 8 -20 0 -36 -2 -36 -4z"/>
<path d="M2958 1623 c6 -2 18 -2 25 0 6 3 1 5 -13 5 -14 0 -19 -2 -12 -5z"/>
<path d="M3013 1623 c9 -2 23 -2 30 0 6 3 -1 5 -18 5 -16 0 -22 -2 -12 -5z"/>
<path d="M3090 1619 c0 -5 5 -7 10 -4 6 3 10 8 10 11 0 2 -4 4 -10 4 -5 0 -10
-5 -10 -11z"/>
<path d="M3130 1622 c0 -11 39 -12 45 -1 4 5 -5 9 -19 9 -14 0 -26 -4 -26 -8z"/>
<path d="M3210 1620 c0 -4 7 -7 15 -6 23 3 26 12 5 13 -11 1 -20 -2 -20 -7z"/>
<path d="M3265 1620 c3 -5 15 -7 27 -5 32 7 31 12 -2 13 -17 0 -28 -3 -25 -8z"/>
<path d="M3330 1621 c0 -4 18 -7 40 -7 22 0 40 3 40 7 0 3 -18 7 -40 7 -22 0
-40 -3 -40 -7z"/>
<path d="M3450 1621 c0 -5 9 -7 20 -4 11 3 20 7 20 9 0 2 -9 4 -20 4 -11 0
-20 -4 -20 -9z"/>
<path d="M3508 1623 c7 -3 16 -2 19 1 4 3 -2 6 -13 5 -11 0 -14 -3 -6 -6z"/>
<path d="M5209 1473 c-13 -16 -12 -17 4 -4 16 13 21 21 13 21 -2 0 -10 -8 -17
-17z"/>
<path d="M781 1454 c0 -11 3 -14 6 -6 3 7 2 16 -1 19 -3 4 -6 -2 -5 -13z"/>
<path d="M1161 1443 c7 -12 15 -20 18 -17 3 2 -3 12 -13 22 -17 16 -18 16 -5
-5z"/>
<path d="M990 1441 c0 -6 4 -13 10 -16 6 -3 7 1 4 9 -7 18 -14 21 -14 7z"/>
<path d="M5570 1401 c0 -6 4 -13 10 -16 6 -3 7 1 4 9 -7 18 -14 21 -14 7z"/>
<path d="M773 1385 c0 -8 4 -12 9 -9 5 3 6 10 3 15 -9 13 -12 11 -12 -6z"/>
<path d="M676 1355 c29 -72 29 -71 4 -50 -13 11 -20 14 -16 8 11 -19 -5 -15
-20 5 -7 9 -14 14 -14 11 0 -3 13 -23 30 -44 16 -20 28 -41 25 -45 -2 -4 7
-18 20 -30 14 -13 25 -27 25 -32 0 -5 13 -20 28 -33 15 -13 34 -35 41 -49 8
-14 20 -26 27 -26 7 0 22 -15 33 -34 12 -19 29 -40 38 -47 10 -8 14 -9 10 -2
-12 20 36 11 56 -11 9 -10 17 -15 17 -9 0 5 -16 24 -35 43 -33 32 -48 59 -25
45 21 -13 9 7 -22 34 -37 33 -33 56 11 66 51 11 43 20 -15 17 -50 -4 -57 -1
-84 28 -16 17 -28 37 -27 43 1 6 -7 11 -18 12 -13 0 -20 6 -19 17 1 10 -2 16
-6 13 -9 -5 -50 46 -50 62 0 5 -7 18 -15 29 -13 16 -13 13 1 -21z"/>
<path d="M5143 1378 c-43 -57 -66 -91 -58 -86 12 7 78 98 72 98 -3 0 -9 -6
-14 -12z"/>
<path d="M1216 1367 c3 -10 9 -15 12 -12 3 3 0 11 -7 18 -10 9 -11 8 -5 -6z"/>
<path d="M1553 1372 c-7 -5 -3 -11 13 -19 23 -11 24 -10 13 5 -8 9 -14 18 -14
19 0 1 -6 -1 -12 -5z"/>
<path d="M4775 1356 c17 -8 32 -12 34 -10 7 6 -2 11 -34 17 l-30 6 30 -13z"/>
<path d="M773 1345 c0 -8 4 -12 9 -9 5 3 6 10 3 15 -9 13 -12 11 -12 -6z"/>
<path d="M5692 1348 c-7 -7 -12 -15 -12 -19 0 -13 -61 -99 -70 -99 -5 0 -10 6
-13 13 -2 6 -9 -3 -14 -22 -12 -46 -51 -74 -102 -73 -23 1 -39 -3 -36 -9 4 -5
12 -9 19 -9 8 0 20 -7 27 -16 12 -15 8 -22 -31 -57 -25 -22 -34 -34 -22 -28
22 12 23 11 14 -5 -5 -9 -36 -44 -68 -77 l-59 -61 52 43 c29 24 55 47 59 52 3
5 10 9 15 9 6 0 7 -4 4 -10 -11 -17 7 -11 21 8 13 16 14 16 8 -3 -5 -19 -5
-19 9 -2 8 9 23 28 33 42 10 13 21 22 25 19 4 -2 15 9 24 24 10 15 31 37 46
50 16 13 29 29 29 36 0 7 13 25 30 41 16 15 27 32 24 37 -3 5 14 32 37 61 34
41 36 46 11 23 -18 -17 -32 -24 -32 -17 0 7 -9 3 -19 -10 -28 -34 -33 -20 -11
29 20 45 21 49 2 30z"/>
<path d="M4250 1337 c0 -4 27 -54 60 -109 33 -56 60 -107 60 -114 0 -7 4 -14
8 -16 5 -1 28 -36 51 -75 23 -40 44 -73 47 -73 4 0 -10 27 -65 120 -11 19 -29
51 -40 71 -39 70 -121 204 -121 196z"/>
<path d="M1250 1323 c0 -6 7 -16 15 -23 9 -7 14 -19 11 -27 -3 -8 -2 -12 3 -8
5 3 19 -7 30 -22 11 -16 21 -25 21 -22 0 3 -18 30 -40 59 -22 29 -40 49 -40
43z"/>
<path d="M2053 1313 c-4 -10 -37 -70 -73 -133 -94 -162 -134 -239 -111 -210
11 14 30 45 42 70 13 25 36 68 52 95 83 139 112 195 101 195 -2 0 -8 -8 -11
-17z"/>
<path d="M1360 1300 c-8 -5 -10 -10 -5 -10 6 0 17 5 25 10 8 5 11 10 5 10 -5
0 -17 -5 -25 -10z"/>
<path d="M4930 1300 c0 -5 5 -10 11 -10 5 0 7 5 4 10 -3 6 -8 10 -11 10 -2 0
-4 -4 -4 -10z"/>
<path d="M2562 1259 c38 -58 142 -187 156 -193 7 -3 -11 23 -40 58 -29 35 -63
76 -75 92 -12 16 -32 40 -43 54 -18 21 -18 19 2 -11z"/>
<path d="M3718 1203 c-41 -49 -87 -105 -103 -126 -18 -24 -33 -36 -43 -32 -12
4 -13 3 -2 -10 7 -9 15 -13 18 -11 2 3 14 1 26 -5 20 -10 20 -9 2 5 -17 14
-17 16 15 57 19 24 41 51 49 60 8 10 20 24 25 31 6 7 30 37 53 66 24 28 41 52
39 52 -3 0 -39 -39 -79 -87z"/>
<path d="M5044 1243 c-15 -20 -23 -33 -16 -29 13 8 56 66 49 66 -3 0 -17 -17
-33 -37z"/>
<path d="M3150 1206 c0 -23 16 -27 17 -5 1 10 -2 19 -8 19 -5 0 -9 -6 -9 -14z"/>
<path d="M1066 1198 c3 -5 10 -6 15 -3 13 9 11 12 -6 12 -8 0 -12 -4 -9 -9z"/>
<path d="M1350 1186 c0 -2 8 -10 18 -17 15 -13 16 -12 3 4 -13 16 -21 21 -21
13z"/>
<path d="M5280 1186 c0 -2 7 -7 16 -10 8 -3 12 -2 9 4 -6 10 -25 14 -25 6z"/>
<path d="M4979 1163 c-13 -16 -12 -17 4 -4 16 13 21 21 13 21 -2 0 -10 -8 -17
-17z"/>
<path d="M4949 1123 c-13 -16 -12 -17 4 -4 16 13 21 21 13 21 -2 0 -10 -8 -17
-17z"/>
<path d="M1390 1126 c0 -2 7 -9 15 -16 13 -11 14 -10 9 4 -5 14 -24 23 -24 12z"/>
<path d="M2000 1096 c0 -2 8 -10 18 -17 15 -13 16 -12 3 4 -13 16 -21 21 -21
13z"/>
<path d="M4690 1031 c-31 -94 -70 -163 -100 -178 -22 -11 -28 -9 -52 13 l-26
26 5 -40 c5 -35 2 -42 -18 -52 -34 -19 -130 -14 -219 10 -66 18 -55 9 21 -19
43 -15 89 -35 104 -45 26 -17 26 -18 9 -37 -10 -11 -38 -26 -63 -34 l-46 -15
48 4 c26 1 50 0 52 -4 8 -12 -38 -48 -120 -95 -44 -25 -77 -45 -74 -45 3 0 47
18 98 40 88 38 141 50 141 31 0 -4 -10 -21 -22 -36 -20 -25 -17 -25 29 9 27
19 53 33 56 29 10 -10 8 -58 -3 -89 -6 -15 -8 -29 -6 -32 3 -3 9 4 12 14 14
37 73 123 92 133 13 7 26 6 44 -3 24 -13 26 -12 26 12 0 14 8 31 18 39 18 13
34 15 127 16 56 1 62 12 11 20 -37 6 -64 22 -64 39 0 5 20 17 45 28 53 23 56
28 14 22 -54 -8 -31 28 64 99 49 37 94 73 100 80 8 9 6 8 -7 -1 -10 -8 -26
-19 -36 -25 -10 -5 -39 -22 -63 -36 -54 -32 -106 -51 -119 -43 -5 3 3 21 17
40 32 42 28 42 -20 4 -39 -31 -74 -39 -76 -17 -3 31 4 87 16 142 8 32 13 61
11 62 -2 2 -14 -28 -26 -66z"/>
<path d="M1635 1055 c12 -52 20 -119 17 -142 -5 -34 -27 -28 -79 20 l-46 42
26 -42 c31 -50 32 -53 12 -53 -21 0 -85 33 -167 86 -38 24 -68 42 -68 40 0 -2
39 -33 88 -69 141 -105 158 -127 100 -127 l-33 0 41 -19 c23 -10 44 -23 48
-29 9 -16 -20 -34 -77 -47 l-52 -13 83 0 c100 -1 137 -16 137 -55 -1 -29 5
-33 22 -16 24 24 63 0 105 -66 23 -36 43 -64 44 -62 2 1 -2 22 -8 46 -14 56 3
70 47 37 48 -36 62 -41 36 -13 -23 25 -22 47 2 43 21 -4 126 -45 167 -66 22
-11 45 -20 52 -20 7 0 -15 15 -49 33 -81 42 -155 95 -149 106 3 5 25 7 48 5
l43 -3 -42 17 c-24 10 -50 25 -58 33 -14 14 -14 17 3 32 10 9 52 29 93 43 79
28 103 42 54 29 -16 -4 -39 -9 -50 -12 -11 -3 -54 -7 -96 -10 -91 -6 -115 8
-106 64 l6 33 -29 -21 c-18 -14 -35 -19 -49 -14 -26 8 -68 78 -90 150 -18 59
-39 89 -26 40z"/>
<path d="M2730 1047 c0 -5 66 -81 114 -131 21 -23 12 -10 -19 28 -31 38 -62
78 -68 88 -10 15 -27 25 -27 15z"/>
<path d="M3545 993 c-11 -14 -25 -31 -30 -37 -6 -6 -32 -38 -59 -71 -29 -37
-34 -44 -11 -20 70 76 128 146 123 150 -2 2 -13 -8 -23 -22z"/>
<path d="M3677 999 c7 -7 15 -10 18 -7 3 3 -2 9 -12 12 -14 6 -15 5 -6 -5z"/>
<path d="M2598 983 c7 -3 16 -2 19 1 4 3 -2 6 -13 5 -11 0 -14 -3 -6 -6z"/>
<path d="M990 950 c0 -5 5 -10 11 -10 5 0 7 5 4 10 -3 6 -8 10 -11 10 -2 0 -4
-4 -4 -10z"/>
<path d="M1170 936 c0 -2 7 -7 16 -10 8 -3 12 -2 9 4 -6 10 -25 14 -25 6z"/>
<path d="M3161 930 c-2 -8 -4 -39 -7 -68 -7 -98 -34 -162 -67 -162 -15 0 -74
35 -107 64 -23 20 -23 20 3 -16 15 -20 27 -47 27 -59 0 -21 -3 -21 -66 -15
-60 6 -192 44 -236 67 -10 6 -18 6 -18 2 0 -4 47 -28 105 -53 125 -54 153 -74
135 -95 -7 -8 -26 -15 -43 -15 -38 0 -24 -19 17 -22 15 -1 32 -8 38 -15 13
-16 -34 -45 -113 -70 -59 -18 -85 -39 -29 -23 17 5 30 7 30 5 0 -3 11 0 24 4
43 17 146 23 162 10 12 -10 11 -17 -7 -48 -18 -31 -19 -34 -3 -20 11 9 34 24
52 33 31 16 36 16 57 2 24 -16 45 -69 45 -113 0 -13 5 -23 10 -23 6 0 9 3 8 8
-1 4 1 27 5 52 14 83 45 100 114 63 40 -21 45 -22 30 -6 -20 23 -22 49 -4 56
19 7 87 0 158 -17 33 -7 59 -9 59 -5 0 5 -5 9 -11 9 -24 0 -139 62 -139 74 0
15 30 26 73 26 17 0 26 4 22 10 -4 6 -11 8 -16 4 -12 -7 -79 15 -79 26 0 10
49 50 61 50 4 0 40 15 81 33 40 19 88 39 106 47 61 24 27 19 -43 -6 -70 -26
-219 -61 -242 -58 -7 1 -17 2 -23 3 -18 2 -11 36 17 76 l27 40 -33 -28 c-74
-62 -118 -69 -139 -22 -10 22 -26 101 -35 180 -2 17 -5 23 -6 15z"/>
<path d="M2356 917 c3 -10 9 -15 12 -12 3 3 0 11 -7 18 -10 9 -11 8 -5 -6z"/>
<path d="M2335 900 c3 -5 8 -10 11 -10 2 0 4 5 4 10 0 6 -5 10 -11 10 -5 0 -7
-4 -4 -10z"/>
<path d="M3963 885 c0 -8 4 -12 9 -9 4 3 8 9 8 15 0 5 -4 9 -8 9 -5 0 -9 -7
-9 -15z"/>
<path d="M2890 863 c0 -6 8 -17 18 -24 16 -13 16 -13 2 6 -8 11 -16 22 -17 24
-2 2 -3 0 -3 -6z"/>
<path d="M3953 805 c-3 -9 -3 -18 -1 -21 3 -3 8 4 11 16 6 23 -1 27 -10 5z"/>
<path d="M2383 771 c0 -11 5 -18 9 -15 4 3 5 11 1 19 -7 21 -12 19 -10 -4z"/>
<path d="M2407 609 c6 -23 9 -24 16 -5 3 8 0 17 -7 19 -10 4 -12 -1 -9 -14z"/>
<path d="M3865 600 c-3 -6 1 -7 9 -4 18 7 21 14 7 14 -6 0 -13 -4 -16 -10z"/>
<path d="M3910 600 c0 -5 7 -7 15 -4 8 4 15 8 15 10 0 2 -7 4 -15 4 -8 0 -15
-4 -15 -10z"/>
<path d="M3828 593 c7 -3 16 -2 19 1 4 3 -2 6 -13 5 -11 0 -14 -3 -6 -6z"/>
<path d="M1630 559 c-7 -11 -10 -23 -7 -25 2 -2 9 7 15 21 14 30 7 33 -8 4z"/>
<path d="M4710 540 c6 -11 13 -20 16 -20 2 0 0 9 -6 20 -6 11 -13 20 -16 20
-2 0 0 -9 6 -20z"/>
<path d="M2030 456 c0 -2 8 -10 18 -17 15 -13 16 -12 3 4 -13 16 -21 21 -21
13z"/>
<path d="M3550 451 c0 -5 7 -11 15 -15 8 -3 15 -1 15 3 0 5 -7 11 -15 15 -8 3
-15 1 -15 -3z"/>
<path d="M2130 376 c0 -2 8 -10 18 -17 15 -13 16 -12 3 4 -13 16 -21 21 -21
13z"/>
<path d="M3857 363 c3 -7 6 -13 8 -13 2 0 5 6 8 13 3 8 -1 14 -8 14 -7 0 -11
-6 -8 -14z"/>
<path d="M3380 361 c0 -5 21 -26 48 -46 44 -36 38 -27 -23 30 -14 13 -25 20
-25 16z"/>
<path d="M2917 335 c-15 -14 -24 -25 -19 -25 5 0 19 11 32 25 30 32 23 32 -13
0z"/>
<path d="M2190 331 c14 -11 30 -21 35 -21 11 0 -7 14 -40 31 -13 7 -12 3 5
-10z"/>
<path d="M2841 274 c-19 -13 -28 -24 -21 -24 6 0 25 11 42 25 37 32 24 31 -21
-1z"/>
<path d="M3501 257 c2 -1 15 -11 29 -22 l25 -20 -19 23 c-11 12 -24 22 -29 22
-6 0 -8 -1 -6 -3z"/>
<path d="M2513 215 c15 -51 1 -62 -58 -43 -36 12 -43 13 -34 2 13 -16 5 -17
-39 -5 -20 6 -32 6 -32 0 0 -5 6 -9 13 -9 8 0 22 -10 33 -22 10 -13 12 -17 4
-10 -19 16 -35 15 -18 -2 8 -7 35 -16 61 -20 26 -4 47 -10 47 -14 0 -4 15 -9
33 -10 17 -1 48 -8 67 -14 19 -7 42 -11 51 -10 9 2 28 -2 42 -7 19 -7 27 -7
27 0 0 6 8 9 18 7 9 -1 23 1 31 6 10 6 12 5 7 -2 -4 -7 -3 -12 3 -12 5 0 18
-3 28 -6 17 -5 17 -5 0 6 -9 6 -14 16 -11 22 4 6 3 8 -2 5 -11 -7 -41 9 -33
17 3 3 30 10 60 15 51 8 48 8 -38 8 -51 -1 -95 2 -99 6 -4 4 1 17 12 28 l19
22 -25 -14 c-63 -33 -106 -19 -145 48 -14 24 -27 43 -29 43 -2 0 1 -16 7 -35z"/>
<path d="M3180 245 c-1 -5 -3 -19 -5 -29 -14 -72 -25 -80 -72 -49 -25 17 -26
17 -15 -4 6 -11 9 -23 5 -26 -8 -9 -61 3 -110 24 -58 25 -54 15 6 -16 61 -30
71 -45 34 -46 l-28 -1 25 -8 c27 -8 16 -17 -27 -23 -47 -7 -30 -13 28 -11 49
2 59 0 55 -12 -6 -16 -1 -17 23 -5 25 14 59 3 67 -21 5 -18 7 -18 29 6 19 21
29 24 47 17 16 -6 27 -4 35 5 9 8 29 12 60 9 46 -4 47 -4 16 7 -30 10 -32 12
-15 25 9 8 12 12 7 9 -6 -2 -17 -1 -25 4 -9 6 4 17 46 40 32 17 50 28 39 24
-66 -22 -126 -36 -132 -30 -4 4 -2 16 5 26 14 23 0 27 -18 5 -15 -18 -46 -20
-57 -2 -4 6 -10 30 -14 52 -4 22 -7 36 -9 30z"/>
<path d="M3810 199 c-29 -56 -75 -76 -127 -54 -36 15 -36 15 -19 -4 17 -19 17
-20 -26 -28 -23 -5 -64 -6 -90 -3 -26 4 -45 3 -42 -2 3 -4 15 -8 27 -8 12 0
33 -3 46 -7 l23 -6 -28 -14 c-16 -7 -21 -11 -11 -8 9 2 17 0 17 -6 0 -7 13 -9
30 -7 22 3 29 1 26 -8 -4 -10 5 -9 37 2 27 9 43 11 45 5 2 -7 13 -6 30 3 15 8
43 15 62 17 19 2 40 7 46 11 7 5 29 10 50 13 22 2 38 8 37 14 -2 6 4 8 12 5 8
-4 15 -2 15 4 0 6 -6 12 -12 15 -7 2 -1 8 15 12 15 4 27 11 27 16 0 5 -10 5
-22 1 -13 -5 -50 -8 -83 -8 l-60 1 0 43 c0 23 -1 42 -2 42 -2 0 -12 -18 -23
-41z"/>
<path d="M2769 213 c-13 -16 -12 -17 4 -4 16 13 21 21 13 21 -2 0 -10 -8 -17
-17z"/>
<path d="M2315 180 c3 -5 11 -10 16 -10 6 0 7 5 4 10 -3 6 -11 10 -16 10 -6 0
-7 -4 -4 -10z"/>
<path d="M3915 170 c-3 -5 -1 -10 4 -10 6 0 11 5 11 10 0 6 -2 10 -4 10 -3 0
-8 -4 -11 -10z"/>
<path d="M4020 170 c-18 -12 -2 -12 25 0 13 6 15 9 5 9 -8 0 -22 -4 -30 -9z"/>
<path d="M3548 43 c7 -3 16 -2 19 1 4 3 -2 6 -13 5 -11 0 -14 -3 -6 -6z"/>
</g>
</svg>
