<?xml version="1.0" standalone="no"?>
<!DOCTYPE svg PUBLIC "-//W3C//DTD SVG 20010904//EN"
 "http://www.w3.org/TR/2001/REC-SVG-20010904/DTD/svg10.dtd">
<svg version="1.0" xmlns="http://www.w3.org/2000/svg"
 width="640.000000pt" height="640.000000pt" viewBox="0 0 640.000000 640.000000"
 preserveAspectRatio="xMidYMid meet">
<metadata>
Created by potrace 1.11, written by Peter Selinger 2001-2013
</metadata>
<g transform="translate(0.000000,640.000000) scale(0.100000,-0.100000)"
fill="#000" stroke="none">
<path d="M2020 6136 c-25 -7 -79 -27 -120 -43 -41 -17 -176 -71 -300 -121
-186 -75 -425 -188 -689 -329 -53 -28 -79 -28 -313 -8 -95 8 -196 17 -223 19
l-51 4 -43 -65 c-23 -35 -53 -90 -66 -121 -13 -31 -39 -94 -59 -140 -52 -122
-66 -183 -73 -323 -6 -138 0 -199 22 -199 20 0 25 39 23 185 -1 126 0 133 34
225 61 162 147 345 184 388 1 2 105 -4 230 -14 279 -21 305 -18 444 60 55 31
127 67 161 81 34 15 98 46 143 70 45 24 160 75 256 113 96 39 225 91 285 116
133 54 227 80 263 71 15 -4 50 -20 77 -37 28 -17 145 -75 260 -128 337 -154
462 -231 479 -293 7 -29 -85 -118 -213 -204 -113 -77 -127 -79 -116 -20 5 23
9 56 9 72 l1 30 -210 79 c-231 86 -265 93 -274 59 -5 -20 -32 -42 -133 -107
-28 -18 -32 -18 -116 -1 -47 9 -110 26 -139 37 -53 19 -122 21 -125 3 -2 -14
62 -48 172 -91 52 -20 124 -49 160 -64 40 -18 101 -32 160 -40 152 -18 263
-39 322 -59 57 -20 142 -60 136 -65 -1 -2 -34 0 -73 5 -139 16 -163 13 -201
-25 -32 -32 -34 -38 -34 -101 0 -65 2 -69 36 -101 19 -19 40 -34 45 -34 5 0 9
-4 9 -10 0 -29 -253 14 -370 63 -69 28 -84 31 -185 31 -96 0 -122 -4 -210 -33
-55 -18 -130 -35 -167 -38 -74 -6 -94 -15 -83 -33 18 -29 197 0 336 55 13 5
10 -7 -12 -51 -16 -31 -29 -68 -29 -81 0 -13 -7 -26 -15 -29 -20 -8 -30 -70
-16 -100 7 -15 19 -24 34 -24 13 0 26 -3 30 -6 10 -10 -35 -64 -73 -87 -32
-20 -50 -22 -227 -26 -268 -5 -321 4 -502 84 -81 36 -163 68 -182 71 l-34 6
20 -20 c24 -25 176 -102 201 -102 9 0 46 -16 82 -36 61 -34 71 -37 196 -45 72
-4 256 -8 409 -9 152 0 277 -2 277 -5 0 -3 -70 -89 -155 -191 -85 -102 -155
-189 -155 -192 0 -4 160 -101 355 -217 l354 -210 -57 -6 c-31 -4 -95 -7 -142
-8 l-85 -1 -95 -137 c-132 -189 -310 -428 -413 -553 l-87 -105 172 -7 c256
-10 348 -23 432 -59 39 -17 114 -47 166 -66 131 -47 156 -64 315 -208 77 -70
167 -147 200 -173 33 -25 63 -48 67 -51 4 -4 1 -47 -7 -96 -27 -163 -17 -249
34 -308 45 -53 100 -139 246 -387 166 -282 224 -370 286 -432 51 -51 75 -60
205 -78 70 -9 443 -89 496 -106 29 -9 22 25 -8 36 -101 39 -426 113 -547 125
-57 6 -74 12 -104 38 -46 40 -170 230 -328 502 -70 121 -146 246 -169 278 -90
128 -97 154 -75 302 l12 76 40 -38 c21 -21 81 -87 132 -148 119 -142 117 -140
142 -112 11 12 30 39 43 60 12 21 26 35 30 30 24 -27 145 -204 161 -235 26
-51 24 -94 -6 -133 -27 -36 -24 -45 14 -45 25 0 42 9 105 54 23 16 31 17 53 7
14 -7 57 -16 96 -21 75 -9 116 -33 87 -50 -30 -17 -177 -125 -221 -162 -37
-31 -40 -38 -23 -38 31 0 172 72 244 126 34 25 63 44 64 42 1 -2 13 -20 25
-40 12 -20 47 -60 78 -88 82 -75 88 -52 17 62 -33 51 -90 159 -129 239 l-69
146 -106 53 c-189 93 -324 171 -363 208 -40 39 -80 129 -75 171 3 23 8 27 54
31 56 6 56 6 159 96 77 68 104 84 135 84 37 0 133 -56 277 -163 78 -57 161
-114 185 -125 71 -34 252 -55 287 -33 11 7 7 13 -15 27 -16 10 -31 19 -32 20
-2 2 12 24 32 50 38 49 45 88 24 127 -6 12 -40 54 -75 92 -35 39 -66 81 -70
95 -13 55 -51 79 -173 109 -52 13 -110 37 -150 61 -36 22 -81 43 -100 46 -19
4 -53 16 -75 27 -56 28 -375 271 -528 402 -229 196 -288 242 -328 260 -21 10
-39 22 -39 28 0 17 112 208 142 243 42 48 56 44 64 -16 10 -74 -19 -60 415
-194 64 -20 126 -44 138 -53 13 -11 24 -35 28 -58 11 -79 75 -117 264 -159
315 -69 343 -69 979 19 303 42 505 63 677 72 l133 6 11 -32 c12 -35 63 -65
199 -116 41 -16 77 -30 79 -32 7 -5 -79 -92 -123 -124 -21 -16 -52 -29 -67
-29 -15 0 -30 -4 -34 -10 -6 -10 37 -37 218 -130 l126 -65 38 20 c21 11 93 75
160 141 116 116 124 127 176 235 66 138 92 217 108 327 15 107 8 336 -12 376
-18 39 -104 81 -274 136 -152 49 -169 57 -255 109 -99 61 -100 61 -116 130
-28 124 -124 271 -262 403 -102 98 -204 166 -374 250 -108 54 -143 76 -171
110 -74 91 -197 330 -242 468 -33 102 -100 160 -185 160 -63 0 -130 -43 -130
-83 0 -11 -7 -28 -16 -38 -39 -44 -24 -269 25 -374 16 -33 53 -90 83 -127 75
-90 95 -124 113 -193 29 -114 17 -215 -37 -293 -37 -54 -78 -72 -160 -72 -35
0 -108 -11 -163 -24 -116 -28 -193 -40 -400 -61 -82 -8 -179 -22 -215 -30
-140 -31 -242 -46 -296 -43 l-55 3 72 59 c40 33 115 98 168 144 234 207 464
357 734 481 59 27 107 54 107 60 0 14 -170 211 -212 246 -18 15 -56 40 -84 57
-29 16 -65 42 -81 58 -68 68 -309 199 -406 220 -49 11 -59 10 -144 -19 -99
-33 -240 -100 -327 -156 -30 -19 -61 -35 -69 -35 -7 0 -21 15 -30 34 -21 44
-121 116 -258 183 -624 307 -597 297 -699 269z m2547 -330 c27 -23 65 -95 148
-286 21 -47 51 -104 66 -128 16 -24 29 -49 29 -56 0 -17 77 -121 116 -158 16
-15 62 -41 103 -57 134 -56 323 -183 431 -291 120 -120 229 -296 253 -411 25
-116 67 -184 67 -108 0 26 3 30 18 24 34 -13 157 -101 205 -147 l50 -47 -6
-98 c-3 -54 -15 -134 -27 -178 -36 -133 -148 -400 -192 -457 -12 -16 -19 -15
-98 21 -47 21 -105 45 -128 52 l-44 13 7 54 7 54 -124 -7 c-118 -7 -159 -11
-313 -34 -38 -6 -119 -15 -180 -20 -60 -6 -166 -19 -235 -30 -224 -36 -553
-71 -662 -71 -71 0 -151 8 -240 25 -177 33 -194 38 -258 83 -68 47 -78 82 -31
107 17 8 31 23 31 31 0 13 8 15 38 10 97 -15 274 -18 372 -7 129 16 316 62
373 93 36 20 42 28 45 60 3 29 -1 38 -17 43 -15 4 -30 -3 -56 -29 -44 -45
-162 -101 -243 -117 -74 -14 -297 -7 -385 12 -53 12 -66 11 -145 -9 -83 -21
-90 -22 -152 -7 -88 21 -441 125 -462 137 -20 10 -24 70 -8 112 25 68 126 76
346 26 175 -40 256 -46 424 -31 189 17 259 33 385 85 l110 47 -90 -6 c-113 -8
-215 -27 -330 -62 -122 -37 -253 -37 -412 0 -219 51 -382 59 -438 23 -32 -21
-49 -12 -40 23 10 39 79 125 120 151 36 22 40 23 179 12 202 -14 819 21 853
50 24 19 73 95 73 112 0 27 -34 18 -106 -29 -38 -25 -84 -50 -104 -55 -55 -16
-313 -22 -574 -13 l-239 8 77 90 77 90 147 6 c87 4 188 14 247 27 55 11 165
25 245 31 80 6 190 20 245 31 55 12 164 30 242 40 78 10 151 25 163 32 36 22
98 125 106 174 4 26 4 88 2 138 -7 127 -39 193 -155 316 l-87 92 0 167 c0 194
10 236 58 257 48 21 91 17 123 -10z m-984 -5 c94 -33 228 -107 314 -175 44
-36 101 -77 125 -91 50 -32 107 -84 189 -176 l59 -67 -152 -75 c-296 -145
-658 -414 -908 -674 -252 -262 -336 -371 -459 -593 -29 -52 -76 -130 -103
-172 -42 -66 -55 -78 -78 -78 -32 0 -148 38 -210 70 -81 40 -750 443 -750 451
0 16 181 247 293 374 186 212 437 447 359 338 -11 -16 -86 -111 -167 -213
-152 -192 -205 -270 -205 -306 0 -11 9 -47 20 -79 22 -64 27 -183 9 -216 -14
-27 -1 -41 55 -58 25 -7 102 -50 172 -96 l127 -82 81 35 c71 32 91 36 161 36
44 0 97 -4 118 -8 37 -8 40 -7 82 38 24 26 51 69 61 94 9 26 21 60 26 75 6 15
39 75 74 134 76 128 83 151 55 197 -12 18 -21 47 -21 65 0 30 -29 71 -50 71
-18 0 -81 63 -101 102 -11 21 -24 62 -29 90 -7 33 -20 62 -37 80 -32 33 -37
34 -70 8 -32 -25 -43 -25 -43 -1 0 30 37 68 85 86 33 13 51 28 69 60 30 50
177 192 228 219 39 21 35 22 108 -18 14 -8 47 -24 75 -36 91 -40 152 -87 169
-131 9 -21 16 -51 16 -64 0 -30 -3 -29 68 -9 46 14 65 15 99 6 65 -18 128 10
229 102 57 50 78 56 94 26 15 -28 44 -25 96 11 61 42 71 62 77 154 3 44 11 92
18 108 12 26 10 30 -22 63 -46 49 -135 117 -186 142 -70 36 -116 42 -187 25
-78 -19 -141 -11 -192 24 -71 47 -152 22 -397 -125 -70 -41 -176 -112 -235
-157 -115 -88 -150 -110 -160 -101 -9 9 67 77 195 172 170 127 293 207 417
270 189 98 240 109 339 75z m-208 -175 c30 -32 94 -40 258 -31 l133 7 83 -63
c46 -35 90 -69 98 -76 12 -9 13 -28 4 -118 -10 -116 -25 -151 -68 -161 -21 -6
-30 -2 -41 14 -8 12 -21 22 -30 22 -8 0 -59 -34 -114 -75 -54 -41 -103 -75
-107 -75 -16 0 -19 13 -10 39 16 40 49 70 90 81 29 8 49 26 88 75 28 35 51 69
51 75 0 21 -60 10 -92 -19 -18 -15 -44 -34 -58 -41 -20 -10 -18 -5 13 27 20
21 37 44 37 51 0 7 18 30 41 50 36 34 39 40 30 64 -20 52 -86 75 -122 42 -13
-12 -22 -13 -38 -5 -62 34 -153 -4 -177 -74 -7 -22 -30 -55 -50 -73 l-36 -34
29 -30 c15 -16 40 -39 55 -49 26 -19 27 -19 67 2 24 12 48 18 61 14 26 -8 26
-22 -2 -30 -30 -9 -66 -43 -84 -78 -14 -26 -13 -29 28 -69 41 -40 40 -61 -1
-39 -11 6 -46 11 -79 11 -54 0 -60 2 -65 23 -15 55 -190 187 -251 187 l-31 1
28 22 c35 29 34 41 -5 68 -35 25 -23 28 -130 -35 -27 -15 -48 -25 -48 -23 0 3
72 49 160 102 88 53 160 102 160 108 0 7 -9 23 -20 37 l-19 25 -45 -17 c-25
-9 -46 -15 -46 -13 0 7 120 76 157 90 55 20 73 18 98 -9z m-1092 -56 c19 -11
75 -29 125 -40 152 -32 176 -55 132 -127 -22 -37 -33 -39 -83 -18 -20 8 -73
19 -118 24 -79 9 -83 10 -129 56 -48 47 -70 52 -70 14 0 -18 -4 -20 -47 -13
-27 3 -52 10 -56 14 -19 17 141 110 190 110 12 0 37 -9 56 -20z m862 -79 c-14
-13 -385 -240 -385 -236 0 16 279 203 344 231 37 16 54 18 41 5z m580 -27 c0
-12 -14 -26 -38 -38 -27 -13 -43 -29 -54 -57 -18 -45 -51 -66 -115 -75 -30 -4
-49 -1 -63 10 -20 15 -20 15 -1 48 10 18 25 45 33 60 17 33 59 68 82 68 10 0
26 -7 37 -15 26 -20 48 -19 75 5 28 23 44 21 44 -6z m-1270 -219 c22 -8 60
-14 85 -15 63 0 130 -36 154 -81 17 -31 18 -40 7 -67 -19 -45 -61 -56 -192
-50 -90 5 -112 9 -136 27 -15 12 -39 30 -52 40 -38 28 -33 73 14 121 43 44 60
47 120 25z m395 -3 c0 -11 -50 -57 -77 -71 -37 -19 -27 4 19 43 41 36 58 44
58 28z m-878 -213 c39 -17 94 -34 122 -38 87 -12 96 -28 44 -79 -75 -71 -188
-84 -188 -21 0 28 -18 34 -122 39 -115 6 -130 15 -98 60 55 77 129 89 242 39z
m583 -60 c4 -5 0 -18 -9 -28 -22 -24 -20 -59 4 -98 23 -38 35 -40 70 -13 40
32 57 26 65 -22 15 -92 49 -146 155 -240 18 -16 30 -36 30 -52 0 -14 7 -40 16
-59 19 -40 14 -51 -80 -201 -31 -49 -56 -97 -56 -106 0 -26 -57 -134 -84 -159
l-25 -23 -27 21 c-48 38 -186 23 -281 -31 l-53 -29 -94 66 c-52 36 -115 75
-140 86 -58 25 -69 46 -67 130 1 47 -5 85 -19 121 -28 74 -25 97 18 159 80
114 364 461 371 453 2 -2 -23 -38 -55 -80 -123 -157 -130 -174 -81 -174 28 0
57 19 127 84 123 114 200 218 138 185 -13 -7 -52 -40 -87 -73 -72 -68 -72 -59
1 26 27 31 59 59 71 61 44 8 86 7 92 -4z m-692 -85 c20 -4 37 -10 37 -14 0
-17 -91 -51 -152 -57 -72 -6 -84 1 -69 40 7 19 19 27 43 30 57 7 102 7 141 1z
m151 -86 c-21 -36 -67 -88 -83 -93 -10 -3 -34 1 -54 10 -20 8 -56 15 -81 15
-25 0 -47 4 -51 9 -10 17 30 31 142 50 133 24 136 24 127 9z m-150 -125 c18
-12 -29 -22 -99 -22 -73 0 -123 12 -95 22 42 16 168 15 194 0z m4436 -548 c25
-10 49 -21 53 -25 4 -4 3 -103 -2 -221 -10 -243 -17 -271 -103 -443 -65 -129
-99 -179 -141 -204 -19 -11 -47 -39 -63 -63 -16 -24 -54 -60 -84 -81 l-54 -36
-111 55 c-60 30 -112 57 -114 59 -2 2 25 34 59 71 192 205 352 588 352 843 0
129 -5 124 86 91 42 -16 97 -37 122 -46z m-4290 -411 c0 -3 -11 -20 -24 -37
-13 -18 -37 -61 -54 -97 -20 -42 -61 -97 -116 -157 -47 -51 -92 -106 -101
-123 -8 -16 -36 -55 -61 -85 -24 -31 -49 -67 -54 -80 -6 -15 -28 -34 -55 -47
-25 -12 -45 -25 -45 -28 0 -3 42 -15 93 -26 l92 -19 -57 -3 c-32 -2 -84 -2
-117 0 l-59 3 70 85 c38 47 138 179 221 295 163 225 242 325 257 325 6 0 10
-3 10 -6z m341 -9 c115 -22 250 -61 323 -94 34 -15 99 -60 146 -100 286 -243
541 -443 732 -575 l98 -67 -17 -27 c-34 -53 -106 -144 -118 -148 -7 -3 -40 8
-73 25 -114 58 -272 65 -331 16 -15 -13 -40 -52 -56 -86 -26 -59 -27 -68 -23
-178 5 -127 32 -214 69 -226 10 -4 19 -12 19 -19 0 -15 -71 -116 -82 -116 -4
0 -30 30 -58 68 -73 96 -166 189 -408 406 -235 210 -317 272 -371 282 -20 3
-90 29 -156 57 -66 27 -151 59 -189 71 -44 13 -74 29 -83 43 -14 21 -13 25 22
55 44 39 112 133 148 203 14 28 46 70 71 95 25 24 46 47 46 50 0 4 -14 4 -31
2 -20 -3 -30 -1 -26 6 4 5 27 13 52 16 24 4 48 13 52 21 5 7 23 17 42 22 l33
9 -51 31 c-31 20 -51 39 -51 51 0 10 -6 24 -12 30 -10 10 4 11 69 6 74 -6 83
-5 89 11 9 23 -20 45 -57 45 -34 0 -59 9 -59 21 0 14 150 10 241 -6z m1522
-881 c37 -3 67 -9 67 -13 0 -11 -73 -77 -92 -84 -27 -10 -168 35 -168 53 0 24
78 62 110 55 8 -2 45 -7 83 -11z m135 -66 c19 -19 14 -36 -28 -93 -43 -58
-108 -103 -162 -111 -28 -5 -47 4 -127 55 -52 34 -101 61 -108 61 -17 0 -16
11 3 38 20 29 50 28 142 -4 40 -14 95 -28 122 -31 l48 -6 21 41 c29 56 63 76
89 50z m-685 -34 c15 -8 27 -19 27 -24 0 -17 -64 -83 -124 -127 -64 -47 -100
-54 -137 -25 l-22 19 23 48 c28 57 89 122 122 128 31 6 77 -2 111 -19z m806
-130 c12 -15 21 -29 21 -33 0 -3 -17 -14 -38 -23 -20 -10 -44 -23 -54 -30 -13
-9 -20 -9 -32 1 -25 21 -19 57 15 96 34 39 50 37 88 -11z m-155 -86 c7 -18 25
-43 39 -56 l25 -23 47 35 c57 44 91 50 54 10 -54 -59 -164 -81 -235 -48 -42
20 -43 39 -2 81 40 41 54 41 72 1z m-650 -418 c87 -83 129 -140 120 -163 -8
-21 -33 -22 -60 -3 -31 22 -154 206 -154 231 0 17 28 -3 94 -65z m196 -95 c21
-25 1 -31 -22 -7 -18 18 -19 22 -6 22 8 0 21 -7 28 -15z m82 -92 c14 -16 31
-38 37 -50 11 -21 9 -23 -14 -23 -36 0 -125 39 -125 55 0 15 39 44 61 44 8 1
27 -11 41 -26z"/>
<path d="M5532 4300 c-12 -5 -84 -21 -160 -36 -145 -28 -247 -60 -377 -117
-73 -33 -115 -46 -198 -62 -16 -3 -27 -11 -24 -18 7 -20 133 -13 212 11 39 12
92 35 119 53 52 33 93 42 259 58 76 8 109 16 142 36 78 45 99 104 27 75z"/>
<path d="M2340 4634 c-80 -35 -115 -100 -111 -206 1 -15 15 -43 31 -61 17 -19
30 -40 30 -46 0 -7 28 -11 81 -11 65 0 88 4 115 21 44 27 74 77 81 137 5 44 3
51 -16 61 -12 7 -21 21 -21 34 0 31 -18 47 -52 47 -16 0 -36 9 -45 20 -21 24
-45 25 -93 4z m107 -63 c17 -11 34 -29 37 -39 4 -11 13 -23 21 -26 57 -22 -46
-156 -120 -156 -30 0 -73 29 -94 63 -25 40 -26 65 -6 112 10 26 22 37 45 41
17 4 33 11 36 15 9 15 47 10 81 -10z"/>
<path d="M2655 4368 c-96 -122 -165 -227 -165 -252 0 -23 37 -66 57 -66 18 0
283 334 283 356 0 15 -55 44 -84 44 -21 0 -40 -17 -91 -82z m90 2 c-26 -50
-197 -270 -210 -270 -27 0 189 298 218 300 4 0 1 -13 -8 -30z"/>
<path d="M2479 3598 c-122 -132 -466 -608 -454 -629 12 -19 41 10 129 135 51
72 148 201 214 286 67 85 130 172 142 192 27 49 9 59 -31 16z"/>
<path d="M2530 3494 c-97 -107 -320 -416 -369 -512 -23 -46 -20 -72 7 -50 8 7
49 65 90 128 66 101 125 182 304 412 43 55 52 78 28 78 -4 0 -31 -25 -60 -56z"/>
<path d="M2636 3358 c-65 -66 -106 -115 -106 -128 0 -11 4 -20 8 -20 11 0 174
168 196 202 10 15 16 33 13 40 -3 8 -47 -29 -111 -94z"/>
<path d="M2844 3324 c-78 -52 -154 -139 -154 -176 0 -35 28 -18 85 52 31 39
74 82 96 95 38 25 52 55 25 55 -7 0 -31 -12 -52 -26z"/>
<path d="M2956 3213 c-24 -32 -63 -75 -85 -96 -43 -39 -53 -67 -24 -67 22 0
128 111 153 161 41 79 18 80 -44 2z"/>
<path d="M3110 3122 c-47 -50 -120 -159 -120 -180 0 -21 86 63 146 141 41 55
48 77 22 77 -6 0 -28 -17 -48 -38z"/>
<path d="M3252 2977 c-40 -30 -91 -93 -98 -123 -13 -50 5 -46 50 13 27 34 66
74 87 89 22 15 39 31 39 35 0 17 -47 9 -78 -14z"/>
<path d="M7 5013 c-4 -3 -7 -52 -7 -107 0 -79 4 -109 18 -136 22 -40 78 -75
137 -85 37 -5 45 -3 77 27 19 18 47 41 62 51 37 26 34 47 -8 47 -46 0 -79 -13
-126 -51 -32 -26 -42 -30 -54 -20 -21 17 -53 106 -61 166 -15 117 -18 128 -38
108z"/>
<path d="M4238 2319 c46 -30 192 -83 282 -104 41 -9 98 -23 125 -32 92 -28
257 -148 475 -344 129 -116 210 -183 278 -229 29 -19 52 -38 52 -43 0 -4 -47
-58 -105 -120 -77 -81 -114 -130 -136 -177 -17 -36 -53 -110 -80 -165 -27 -55
-49 -105 -49 -111 0 -6 -14 -32 -31 -58 -24 -36 -33 -61 -37 -111 l-5 -64 -41
39 c-22 22 -59 46 -81 54 -48 17 -647 134 -725 142 -84 8 -44 -9 115 -49 162
-42 479 -113 545 -123 25 -4 57 -13 71 -20 38 -19 99 -93 99 -120 0 -13 -14
-67 -32 -120 -29 -89 -30 -99 -17 -123 8 -14 44 -42 79 -61 36 -20 100 -59
142 -88 42 -29 79 -52 81 -52 3 0 8 42 11 92 14 185 34 285 74 376 22 48 49
118 62 156 28 85 138 305 202 403 47 73 115 133 150 133 10 0 18 4 18 10 0 18
-163 140 -240 180 -91 48 -236 155 -348 259 -227 208 -305 267 -449 341 -43
22 -110 47 -148 56 -39 9 -129 34 -202 55 -151 45 -184 49 -135 18z m1322
-800 c19 -12 52 -35 73 -51 l37 -30 -49 -54 c-80 -91 -229 -369 -267 -500 -9
-33 -27 -79 -39 -104 -37 -74 -54 -133 -80 -288 -14 -80 -30 -151 -35 -156
-10 -10 -220 112 -220 128 0 6 16 76 35 156 19 80 42 174 50 209 8 35 44 125
78 200 35 75 72 158 82 184 9 27 44 82 76 122 64 79 194 205 213 205 6 0 27
-10 46 -21z"/>
</g>
</svg>
